M48
;Layer_Color=9474304
;FILE_FORMAT=2:5
INCH,TZ
;TYPE=PLATED
T1F00S00C0.01181
T2F00S00C0.03150
T3F00S00C0.07087
%
T01
X58802Y4093
X48400Y27830
X56400Y46000
X55723Y65100
X51453Y91005
X51748Y97714
X51710Y100700
X51748Y103800
X48598Y105682
Y114694
X54400Y113400
X36000Y119602
X30900Y111500
X36000Y106218
Y89149
X17500Y91400
Y97800
X17100Y103900
X17900Y107000
X19400Y110700
X10200Y120300
X13149Y125549
X34500Y137700
X56255Y140900
X20712Y83132
X25000Y169078
X36500Y165745
X54204Y182521
X52378Y198022
X22900Y197076
X17000Y183801
T02
X6000Y6000
Y16000
Y26000
Y36000
Y46000
Y56000
Y66000
Y76000
Y86000
Y96000
Y106000
Y116000
Y126000
Y136000
Y146000
X66000
Y136000
Y126000
Y116000
Y106000
Y96000
Y86000
Y76000
Y66000
Y56000
Y46000
Y36000
Y26000
Y16000
Y6000
Y156000
Y166000
Y176000
Y186000
Y196000
X6000
Y186000
Y176000
Y166000
Y156000
T03
X23800Y12000
X36100
X48400
X36000Y190500
M30
