G04*
G04 #@! TF.GenerationSoftware,Altium Limited,Altium Designer,21.0.8 (223)*
G04*
G04 Layer_Color=16711935*
%FSLAX25Y25*%
%MOIN*%
G70*
G04*
G04 #@! TF.SameCoordinates,A92B238D-CFD9-4CD7-8B95-F340C1F2EFB7*
G04*
G04*
G04 #@! TF.FilePolarity,Negative*
G04*
G01*
G75*
%ADD11C,0.06992*%
%ADD12R,0.06992X0.06992*%
%ADD13C,0.07386*%
G04:AMPARAMS|DCode=31|XSize=48.27mil|YSize=60.08mil|CornerRadius=12.82mil|HoleSize=0mil|Usage=FLASHONLY|Rotation=270.000|XOffset=0mil|YOffset=0mil|HoleType=Round|Shape=RoundedRectangle|*
%AMROUNDEDRECTD31*
21,1,0.04827,0.03445,0,0,270.0*
21,1,0.02264,0.06008,0,0,270.0*
1,1,0.02563,-0.01722,-0.01132*
1,1,0.02563,-0.01722,0.01132*
1,1,0.02563,0.01722,0.01132*
1,1,0.02563,0.01722,-0.01132*
%
%ADD31ROUNDEDRECTD31*%
%ADD32R,0.04433X0.04236*%
G04:AMPARAMS|DCode=33|XSize=26.61mil|YSize=42.36mil|CornerRadius=7.4mil|HoleSize=0mil|Usage=FLASHONLY|Rotation=0.000|XOffset=0mil|YOffset=0mil|HoleType=Round|Shape=RoundedRectangle|*
%AMROUNDEDRECTD33*
21,1,0.02661,0.02756,0,0,0.0*
21,1,0.01181,0.04236,0,0,0.0*
1,1,0.01480,0.00591,-0.01378*
1,1,0.01480,-0.00591,-0.01378*
1,1,0.01480,-0.00591,0.01378*
1,1,0.01480,0.00591,0.01378*
%
%ADD33ROUNDEDRECTD33*%
%ADD34R,0.04236X0.06598*%
%ADD35R,0.06598X0.04236*%
%ADD36R,0.04039X0.03842*%
%ADD37O,0.05811X0.02465*%
%ADD38O,0.02465X0.05811*%
%ADD39R,0.04236X0.04433*%
D11*
X6000Y56000D02*
D03*
Y66000D02*
D03*
Y76000D02*
D03*
Y86000D02*
D03*
Y96000D02*
D03*
Y106000D02*
D03*
Y116000D02*
D03*
Y186000D02*
D03*
Y176000D02*
D03*
Y166000D02*
D03*
Y156000D02*
D03*
Y146000D02*
D03*
Y136000D02*
D03*
Y126000D02*
D03*
Y46000D02*
D03*
Y36000D02*
D03*
Y26000D02*
D03*
Y16000D02*
D03*
Y6000D02*
D03*
X66000D02*
D03*
Y16000D02*
D03*
Y26000D02*
D03*
Y36000D02*
D03*
Y46000D02*
D03*
Y126000D02*
D03*
Y136000D02*
D03*
Y146000D02*
D03*
Y156000D02*
D03*
Y166000D02*
D03*
Y176000D02*
D03*
Y186000D02*
D03*
Y116000D02*
D03*
Y106000D02*
D03*
Y96000D02*
D03*
Y86000D02*
D03*
Y76000D02*
D03*
Y66000D02*
D03*
Y56000D02*
D03*
D12*
X6000Y196000D02*
D03*
X66000D02*
D03*
D13*
X36000Y190500D02*
D03*
X23800Y12000D02*
D03*
X36100D02*
D03*
X48400D02*
D03*
D31*
X25000Y180043D02*
D03*
Y172957D02*
D03*
X48000Y180043D02*
D03*
Y172957D02*
D03*
D32*
X54504Y70004D02*
D03*
X48598D02*
D03*
X29700Y131800D02*
D03*
X35605D02*
D03*
D33*
X40240Y172327D02*
D03*
X32760D02*
D03*
X40240Y180673D02*
D03*
X36500D02*
D03*
X32760D02*
D03*
D34*
X29000Y190500D02*
D03*
X43000D02*
D03*
D35*
X23800Y19000D02*
D03*
Y5000D02*
D03*
X36100Y19000D02*
D03*
Y5000D02*
D03*
X48400D02*
D03*
Y19000D02*
D03*
D36*
X42600Y27100D02*
D03*
Y33399D02*
D03*
X29600D02*
D03*
Y27100D02*
D03*
X36100Y33399D02*
D03*
Y27100D02*
D03*
X51600Y187401D02*
D03*
Y193700D02*
D03*
D37*
X13559Y85154D02*
D03*
Y88303D02*
D03*
Y91453D02*
D03*
Y94602D02*
D03*
Y97752D02*
D03*
Y100902D02*
D03*
Y104051D02*
D03*
Y107201D02*
D03*
Y110350D02*
D03*
Y113500D02*
D03*
Y116650D02*
D03*
X58441D02*
D03*
Y113500D02*
D03*
Y110350D02*
D03*
Y107201D02*
D03*
Y104051D02*
D03*
Y100902D02*
D03*
Y97752D02*
D03*
Y94602D02*
D03*
Y91453D02*
D03*
Y88303D02*
D03*
Y85154D02*
D03*
D38*
X20252Y123343D02*
D03*
X23402D02*
D03*
X26551D02*
D03*
X29701D02*
D03*
X32850D02*
D03*
X36000D02*
D03*
X39150D02*
D03*
X42299D02*
D03*
X45449D02*
D03*
X48598D02*
D03*
X51748D02*
D03*
Y78461D02*
D03*
X48598D02*
D03*
X45449D02*
D03*
X42299D02*
D03*
X39150D02*
D03*
X36000D02*
D03*
X32850D02*
D03*
X29701D02*
D03*
X26551D02*
D03*
X23402D02*
D03*
X20252D02*
D03*
D39*
X55600Y136205D02*
D03*
Y130300D02*
D03*
M02*
