G04*
G04 #@! TF.GenerationSoftware,Altium Limited,Altium Designer,21.0.8 (223)*
G04*
G04 Layer_Color=128*
%FSLAX25Y25*%
%MOIN*%
G70*
G04*
G04 #@! TF.SameCoordinates,A92B238D-CFD9-4CD7-8B95-F340C1F2EFB7*
G04*
G04*
G04 #@! TF.FilePolarity,Positive*
G04*
G01*
G75*
G04:AMPARAMS|DCode=21|XSize=45.28mil|YSize=57.09mil|CornerRadius=11.32mil|HoleSize=0mil|Usage=FLASHONLY|Rotation=270.000|XOffset=0mil|YOffset=0mil|HoleType=Round|Shape=RoundedRectangle|*
%AMROUNDEDRECTD21*
21,1,0.04528,0.03445,0,0,270.0*
21,1,0.02264,0.05709,0,0,270.0*
1,1,0.02264,-0.01722,-0.01132*
1,1,0.02264,-0.01722,0.01132*
1,1,0.02264,0.01722,0.01132*
1,1,0.02264,0.01722,-0.01132*
%
%ADD21ROUNDEDRECTD21*%
%ADD22R,0.04134X0.03937*%
G04:AMPARAMS|DCode=23|XSize=23.62mil|YSize=39.37mil|CornerRadius=5.91mil|HoleSize=0mil|Usage=FLASHONLY|Rotation=0.000|XOffset=0mil|YOffset=0mil|HoleType=Round|Shape=RoundedRectangle|*
%AMROUNDEDRECTD23*
21,1,0.02362,0.02756,0,0,0.0*
21,1,0.01181,0.03937,0,0,0.0*
1,1,0.01181,0.00591,-0.01378*
1,1,0.01181,-0.00591,-0.01378*
1,1,0.01181,-0.00591,0.01378*
1,1,0.01181,0.00591,0.01378*
%
%ADD23ROUNDEDRECTD23*%
%ADD24R,0.03937X0.06299*%
%ADD25R,0.06299X0.03937*%
%ADD26R,0.03740X0.03543*%
%ADD27O,0.05512X0.02165*%
%ADD28O,0.02165X0.05512*%
%ADD29R,0.03937X0.04134*%
D21*
X25000Y180043D02*
D03*
Y172957D02*
D03*
X48000Y180043D02*
D03*
Y172957D02*
D03*
D22*
X54504Y70004D02*
D03*
X48598D02*
D03*
X29700Y131800D02*
D03*
X35605D02*
D03*
D23*
X40240Y172327D02*
D03*
X32760D02*
D03*
X40240Y180673D02*
D03*
X36500D02*
D03*
X32760D02*
D03*
D24*
X29000Y190500D02*
D03*
X43000D02*
D03*
D25*
X23800Y19000D02*
D03*
Y5000D02*
D03*
X36100Y19000D02*
D03*
Y5000D02*
D03*
X48400D02*
D03*
Y19000D02*
D03*
D26*
X42600Y27100D02*
D03*
Y33399D02*
D03*
X29600D02*
D03*
Y27100D02*
D03*
X36100Y33399D02*
D03*
Y27100D02*
D03*
X51600Y187401D02*
D03*
Y193700D02*
D03*
D27*
X13559Y85154D02*
D03*
Y88303D02*
D03*
Y91453D02*
D03*
Y94602D02*
D03*
Y97752D02*
D03*
Y100902D02*
D03*
Y104051D02*
D03*
Y107201D02*
D03*
Y110350D02*
D03*
Y113500D02*
D03*
Y116650D02*
D03*
X58441D02*
D03*
Y113500D02*
D03*
Y110350D02*
D03*
Y107201D02*
D03*
Y104051D02*
D03*
Y100902D02*
D03*
Y97752D02*
D03*
Y94602D02*
D03*
Y91453D02*
D03*
Y88303D02*
D03*
Y85154D02*
D03*
D28*
X20252Y123343D02*
D03*
X23402D02*
D03*
X26551D02*
D03*
X29701D02*
D03*
X32850D02*
D03*
X36000D02*
D03*
X39150D02*
D03*
X42299D02*
D03*
X45449D02*
D03*
X48598D02*
D03*
X51748D02*
D03*
Y78461D02*
D03*
X48598D02*
D03*
X45449D02*
D03*
X42299D02*
D03*
X39150D02*
D03*
X36000D02*
D03*
X32850D02*
D03*
X29701D02*
D03*
X26551D02*
D03*
X23402D02*
D03*
X20252D02*
D03*
D29*
X55600Y136205D02*
D03*
Y130300D02*
D03*
M02*
