G04*
G04 #@! TF.GenerationSoftware,Altium Limited,Altium Designer,21.0.8 (223)*
G04*
G04 Layer_Color=16711935*
%FSLAX25Y25*%
%MOIN*%
G70*
G04*
G04 #@! TF.SameCoordinates,A92B238D-CFD9-4CD7-8B95-F340C1F2EFB7*
G04*
G04*
G04 #@! TF.FilePolarity,Positive*
G04*
G01*
G75*
%ADD41C,0.00394*%
D41*
X31000Y201000D02*
X30707Y201707D01*
X30000Y202000D01*
X42000D02*
X41293Y201707D01*
X41000Y201000D01*
X31018Y201004D02*
X31308Y200051D01*
X31778Y199174D01*
X32410Y198405D01*
X33179Y197774D01*
X34057Y197305D01*
X35010Y197017D01*
X36000Y196919D01*
X36990Y197017D01*
X37943Y197305D01*
X38821Y197774D01*
X39590Y198405D01*
X40222Y199174D01*
X40692Y200051D01*
X40982Y201004D01*
X68000Y0D02*
X69035Y136D01*
X70000Y536D01*
X70828Y1172D01*
X71464Y2000D01*
X71864Y2965D01*
X72000Y4000D01*
X0D02*
X136Y2965D01*
X536Y2000D01*
X1172Y1172D01*
X2000Y536D01*
X2965Y136D01*
X4000Y0D01*
Y202000D02*
X2965Y201864D01*
X2000Y201464D01*
X1172Y200828D01*
X536Y200000D01*
X136Y199035D01*
X0Y198000D01*
X72000D02*
X71864Y199035D01*
X71464Y200000D01*
X70828Y200828D01*
X70000Y201464D01*
X69035Y201864D01*
X68000Y202000D01*
X0Y4000D02*
Y198000D01*
X72000Y4000D02*
Y198000D01*
X4000Y202000D02*
X30000D01*
X42081D02*
X68000D01*
X4000Y0D02*
X68000D01*
M02*
