G04*
G04 #@! TF.GenerationSoftware,Altium Limited,Altium Designer,21.0.8 (223)*
G04*
G04 Layer_Physical_Order=2*
G04 Layer_Color=16711680*
%FSLAX25Y25*%
%MOIN*%
G70*
G04*
G04 #@! TF.SameCoordinates,A92B238D-CFD9-4CD7-8B95-F340C1F2EFB7*
G04*
G04*
G04 #@! TF.FilePolarity,Positive*
G04*
G01*
G75*
%ADD14C,0.01968*%
%ADD15C,0.01575*%
%ADD16C,0.06693*%
%ADD17R,0.06693X0.06693*%
%ADD18C,0.07087*%
%ADD19C,0.02362*%
%ADD20C,0.01968*%
G04:AMPARAMS|DCode=21|XSize=45.28mil|YSize=57.09mil|CornerRadius=11.32mil|HoleSize=0mil|Usage=FLASHONLY|Rotation=270.000|XOffset=0mil|YOffset=0mil|HoleType=Round|Shape=RoundedRectangle|*
%AMROUNDEDRECTD21*
21,1,0.04528,0.03445,0,0,270.0*
21,1,0.02264,0.05709,0,0,270.0*
1,1,0.02264,-0.01722,-0.01132*
1,1,0.02264,-0.01722,0.01132*
1,1,0.02264,0.01722,0.01132*
1,1,0.02264,0.01722,-0.01132*
%
%ADD21ROUNDEDRECTD21*%
%ADD22R,0.04134X0.03937*%
G04:AMPARAMS|DCode=23|XSize=23.62mil|YSize=39.37mil|CornerRadius=5.91mil|HoleSize=0mil|Usage=FLASHONLY|Rotation=0.000|XOffset=0mil|YOffset=0mil|HoleType=Round|Shape=RoundedRectangle|*
%AMROUNDEDRECTD23*
21,1,0.02362,0.02756,0,0,0.0*
21,1,0.01181,0.03937,0,0,0.0*
1,1,0.01181,0.00591,-0.01378*
1,1,0.01181,-0.00591,-0.01378*
1,1,0.01181,-0.00591,0.01378*
1,1,0.01181,0.00591,0.01378*
%
%ADD23ROUNDEDRECTD23*%
%ADD24R,0.03937X0.06299*%
%ADD25R,0.06299X0.03937*%
%ADD26R,0.03740X0.03543*%
%ADD27O,0.05512X0.02165*%
%ADD28O,0.02165X0.05512*%
%ADD29R,0.03937X0.04134*%
%ADD30C,0.02362*%
G36*
X68869Y200866D02*
X69412Y200641D01*
X69423Y200634D01*
X69271Y200134D01*
X61866D01*
Y194705D01*
X58495Y191334D01*
X58060Y190683D01*
X57908Y189915D01*
Y182717D01*
X56721Y181530D01*
X56285Y181801D01*
X56328Y182021D01*
X54704D01*
Y180396D01*
X55055Y180466D01*
X55278Y180615D01*
X55638Y180254D01*
X55591Y180184D01*
X55439Y179416D01*
Y174145D01*
X53360Y172067D01*
X52925Y171416D01*
X52772Y170648D01*
Y168179D01*
X37730Y153137D01*
X37295Y152486D01*
X37143Y151718D01*
Y138158D01*
X36643Y138109D01*
X36555Y138551D01*
X36072Y139272D01*
X35351Y139754D01*
X35000Y139824D01*
Y137700D01*
Y135576D01*
X35351Y135645D01*
X36072Y136127D01*
X36555Y136849D01*
X36643Y137291D01*
X37143Y137242D01*
Y135075D01*
X36694Y134768D01*
X36105D01*
Y131800D01*
X35105D01*
Y134768D01*
X32539D01*
Y134556D01*
X31506D01*
Y169179D01*
X32006Y169576D01*
X32169Y169544D01*
X33350D01*
X33888Y169651D01*
X34344Y169955D01*
X34648Y170411D01*
X34755Y170949D01*
Y173705D01*
X34648Y174242D01*
X34344Y174698D01*
X33888Y175003D01*
X33350Y175110D01*
X32169D01*
X31632Y175003D01*
X31176Y174698D01*
X31009Y174448D01*
X28608D01*
X28530Y174837D01*
X28106Y175472D01*
X27471Y175897D01*
X26722Y176046D01*
X23278D01*
X22529Y175897D01*
X21894Y175472D01*
X21470Y174837D01*
X21321Y174089D01*
Y171825D01*
X21470Y171076D01*
X21894Y170441D01*
X22529Y170017D01*
X23194Y169885D01*
Y169078D01*
X23331Y168386D01*
X23723Y167800D01*
X24309Y167409D01*
X25000Y167271D01*
X25691Y167409D01*
X26277Y167800D01*
X26669Y168386D01*
X26806Y169078D01*
Y169885D01*
X27394Y170001D01*
X27894Y169772D01*
Y156242D01*
X27567Y156089D01*
X27394Y156069D01*
X17878Y165585D01*
Y175928D01*
X17741Y176620D01*
X17349Y177206D01*
X9912Y184643D01*
X10028Y184921D01*
X10170Y186000D01*
X10028Y187079D01*
X9611Y188085D01*
X8948Y188948D01*
X8085Y189611D01*
X7079Y190027D01*
X6000Y190170D01*
X4921Y190027D01*
X3915Y189611D01*
X3052Y188948D01*
X2389Y188085D01*
X1973Y187079D01*
X1830Y186000D01*
X1973Y184921D01*
X2389Y183915D01*
X3052Y183052D01*
X3915Y182389D01*
X4921Y181973D01*
X6000Y181831D01*
X7079Y181973D01*
X7358Y182088D01*
X14266Y175180D01*
Y170996D01*
X13766Y170789D01*
X9912Y174643D01*
X10028Y174921D01*
X10170Y176000D01*
X10028Y177079D01*
X9611Y178085D01*
X8948Y178948D01*
X8085Y179611D01*
X7079Y180027D01*
X6000Y180169D01*
X4921Y180027D01*
X3915Y179611D01*
X3052Y178948D01*
X2389Y178085D01*
X1973Y177079D01*
X1830Y176000D01*
X1973Y174921D01*
X2389Y173915D01*
X3052Y173052D01*
X3915Y172389D01*
X4921Y171973D01*
X6000Y171830D01*
X7079Y171973D01*
X7358Y172088D01*
X11116Y168330D01*
Y164146D01*
X10616Y163939D01*
X9912Y164643D01*
X10028Y164921D01*
X10170Y166000D01*
X10028Y167079D01*
X9611Y168085D01*
X8948Y168948D01*
X8085Y169611D01*
X7079Y170027D01*
X6000Y170169D01*
X4921Y170027D01*
X3915Y169611D01*
X3052Y168948D01*
X2389Y168085D01*
X1973Y167079D01*
X1830Y166000D01*
X1973Y164921D01*
X2389Y163915D01*
X3052Y163052D01*
X3915Y162389D01*
X4921Y161973D01*
X6000Y161830D01*
X7079Y161973D01*
X7358Y162088D01*
X18347Y151098D01*
Y147950D01*
X17847Y147900D01*
X17819Y148041D01*
X17428Y148627D01*
X10513Y155542D01*
X10142Y155790D01*
X10170Y156000D01*
X10028Y157079D01*
X9611Y158085D01*
X8948Y158948D01*
X8085Y159611D01*
X7079Y160027D01*
X6000Y160169D01*
X4921Y160027D01*
X3915Y159611D01*
X3052Y158948D01*
X2389Y158085D01*
X1973Y157079D01*
X1830Y156000D01*
X1973Y154921D01*
X2389Y153915D01*
X3052Y153052D01*
X3915Y152389D01*
X4921Y151973D01*
X6000Y151830D01*
X7079Y151973D01*
X8085Y152389D01*
X8347Y152591D01*
X8357Y152589D01*
X14344Y146601D01*
Y140899D01*
X13844Y140710D01*
X9912Y144642D01*
X10028Y144921D01*
X10170Y146000D01*
X10028Y147079D01*
X9611Y148085D01*
X8948Y148948D01*
X8085Y149611D01*
X7079Y150027D01*
X6000Y150170D01*
X4921Y150027D01*
X3915Y149611D01*
X3052Y148948D01*
X2389Y148085D01*
X1973Y147079D01*
X1830Y146000D01*
X1973Y144921D01*
X2389Y143915D01*
X3052Y143052D01*
X3915Y142389D01*
X4921Y141973D01*
X6000Y141831D01*
X7079Y141973D01*
X7358Y142088D01*
X10894Y138552D01*
Y125997D01*
X11031Y125306D01*
X11423Y124720D01*
X11871Y124271D01*
X12457Y123880D01*
X13149Y123742D01*
X13840Y123880D01*
X13903Y123922D01*
X14344Y123686D01*
Y121734D01*
X14481Y121043D01*
X14873Y120457D01*
X27863Y107467D01*
X28449Y107075D01*
X29141Y106938D01*
X32041D01*
X32733Y107075D01*
X33319Y107467D01*
X34933Y109081D01*
X35325Y109667D01*
X35462Y110359D01*
Y116593D01*
X35341Y117201D01*
X35500Y117445D01*
Y119602D01*
X36500D01*
Y117679D01*
X36774Y117733D01*
X37431Y118172D01*
X37869Y118828D01*
X38023Y119602D01*
X38020Y119620D01*
X38474Y119897D01*
X39150Y119763D01*
X39879Y119908D01*
X40395Y120253D01*
X40724Y120293D01*
X41053Y120253D01*
X41570Y119908D01*
X42299Y119763D01*
X43029Y119908D01*
X43545Y120253D01*
X43874Y120293D01*
X44203Y120253D01*
X44719Y119908D01*
X45449Y119763D01*
X46178Y119908D01*
X46695Y120253D01*
X47024Y120293D01*
X47353Y120253D01*
X47869Y119908D01*
X48598Y119763D01*
X49328Y119908D01*
X49844Y120253D01*
X50173Y120293D01*
X50502Y120253D01*
X50864Y120011D01*
X51001Y119440D01*
X47928Y116367D01*
X47907Y116363D01*
X47321Y115972D01*
X46930Y115386D01*
X46792Y114694D01*
X46930Y114003D01*
X47321Y113417D01*
X47907Y113025D01*
X48598Y112888D01*
X48810D01*
X49501Y113025D01*
X50087Y113417D01*
X56877Y120207D01*
X57034Y120442D01*
X57534Y120290D01*
Y118556D01*
X56768D01*
X56038Y118411D01*
X55419Y117998D01*
X55006Y117379D01*
X54861Y116650D01*
X55006Y115920D01*
X55283Y115506D01*
X55279Y115486D01*
X55265Y115455D01*
X54955Y115096D01*
X54400Y115206D01*
X53709Y115069D01*
X53123Y114677D01*
X52731Y114091D01*
X52594Y113400D01*
X52731Y112709D01*
X53123Y112123D01*
X53709Y111731D01*
X54400Y111594D01*
X54506Y111615D01*
X54807Y111165D01*
X54806Y111163D01*
X54744Y110850D01*
X58441D01*
X62138D01*
X62076Y111163D01*
X61708Y111714D01*
X61462Y112152D01*
X61876Y112770D01*
X62021Y113500D01*
X62001Y113600D01*
X62469Y113811D01*
X63052Y113052D01*
X63915Y112389D01*
X64921Y111973D01*
X66000Y111830D01*
X67079Y111973D01*
X68085Y112389D01*
X68948Y113052D01*
X69611Y113915D01*
X70027Y114921D01*
X70170Y116000D01*
X70027Y117079D01*
X69611Y118085D01*
X68948Y118948D01*
X68085Y119611D01*
X67079Y120027D01*
X66000Y120169D01*
X64921Y120027D01*
X63915Y119611D01*
X63052Y118948D01*
X62389Y118085D01*
X62242Y117731D01*
X61678Y117675D01*
X61462Y117998D01*
X61146Y118209D01*
Y138592D01*
X64642Y142088D01*
X64921Y141973D01*
X66000Y141831D01*
X67079Y141973D01*
X68085Y142389D01*
X68948Y143052D01*
X69611Y143915D01*
X70027Y144921D01*
X70170Y146000D01*
X70027Y147079D01*
X69611Y148085D01*
X68948Y148948D01*
X68085Y149611D01*
X67079Y150027D01*
X66000Y150170D01*
X64921Y150027D01*
X63915Y149611D01*
X63052Y148948D01*
X62389Y148085D01*
X61973Y147079D01*
X61831Y146000D01*
X61973Y144921D01*
X62088Y144642D01*
X58714Y141269D01*
X58172Y141433D01*
X58124Y141674D01*
X57685Y142331D01*
X57029Y142769D01*
X56255Y142923D01*
X56167Y142906D01*
X55921Y143367D01*
X64642Y152088D01*
X64921Y151973D01*
X66000Y151830D01*
X67079Y151973D01*
X68085Y152389D01*
X68948Y153052D01*
X69611Y153915D01*
X70027Y154921D01*
X70170Y156000D01*
X70027Y157079D01*
X69611Y158085D01*
X68948Y158948D01*
X68085Y159611D01*
X67079Y160027D01*
X66000Y160169D01*
X64921Y160027D01*
X63915Y159611D01*
X63052Y158948D01*
X62389Y158085D01*
X61973Y157079D01*
X61831Y156000D01*
X61973Y154921D01*
X62088Y154642D01*
X50905Y143459D01*
X50405Y143667D01*
Y147850D01*
X64642Y162088D01*
X64921Y161973D01*
X66000Y161830D01*
X67079Y161973D01*
X68085Y162389D01*
X68948Y163052D01*
X69611Y163915D01*
X70027Y164921D01*
X70170Y166000D01*
X70027Y167079D01*
X69611Y168085D01*
X68948Y168948D01*
X68085Y169611D01*
X67079Y170027D01*
X66000Y170169D01*
X65735Y170135D01*
X65314Y170583D01*
X65354Y170786D01*
Y171521D01*
X65703Y171870D01*
X66000Y171830D01*
X67079Y171973D01*
X68085Y172389D01*
X68948Y173052D01*
X69611Y173915D01*
X70027Y174921D01*
X70170Y176000D01*
X70027Y177079D01*
X69611Y178085D01*
X68948Y178948D01*
X68085Y179611D01*
X67079Y180027D01*
X66000Y180169D01*
X65388Y180089D01*
X65046Y180454D01*
X65071Y180581D01*
Y181061D01*
X65859Y181849D01*
X66000Y181831D01*
X67079Y181973D01*
X68085Y182389D01*
X68948Y183052D01*
X69611Y183915D01*
X70027Y184921D01*
X70170Y186000D01*
X70027Y187079D01*
X69611Y188085D01*
X68948Y188948D01*
X68085Y189611D01*
X67079Y190027D01*
X66000Y190170D01*
X64921Y190027D01*
X63915Y189611D01*
X63052Y188948D01*
X62695Y188483D01*
X62016Y188399D01*
X61922Y188473D01*
Y189083D01*
X64705Y191866D01*
X70134D01*
Y199271D01*
X70634Y199423D01*
X70641Y199412D01*
X70866Y198869D01*
X70981Y198293D01*
Y198000D01*
Y4000D01*
Y3706D01*
X70866Y3131D01*
X70641Y2588D01*
X70315Y2100D01*
X69900Y1685D01*
X69412Y1359D01*
X68869Y1134D01*
X68294Y1020D01*
X3706D01*
X3131Y1134D01*
X2588Y1359D01*
X2100Y1685D01*
X1685Y2100D01*
X1359Y2588D01*
X1134Y3131D01*
X1020Y3706D01*
Y4000D01*
Y198000D01*
Y198294D01*
X1134Y198869D01*
X1359Y199412D01*
X1366Y199423D01*
X1866Y199271D01*
Y191866D01*
X10134D01*
Y194194D01*
X12445D01*
X22534Y184105D01*
X22988Y183801D01*
X22930Y183280D01*
X22446Y183183D01*
X21741Y182712D01*
X21269Y182007D01*
X21104Y181175D01*
Y180543D01*
X25000D01*
Y180043D01*
D01*
Y180543D01*
X28896D01*
Y181175D01*
X28731Y182007D01*
X28259Y182712D01*
X28148Y182787D01*
X28241Y183326D01*
X28320Y183346D01*
X30764Y180902D01*
Y179295D01*
X30871Y178758D01*
X31176Y178302D01*
X31632Y177997D01*
X32169Y177890D01*
X33350D01*
X33888Y177997D01*
X34344Y178302D01*
X34818Y178112D01*
X35289Y177797D01*
X35909Y177674D01*
X36000D01*
Y180673D01*
X37000D01*
Y177674D01*
X37091D01*
X37711Y177797D01*
X38182Y178112D01*
X38656Y178302D01*
X39112Y177997D01*
X39650Y177890D01*
X40831D01*
X41368Y177997D01*
X41824Y178302D01*
X41991Y178552D01*
X44392D01*
X44470Y178163D01*
X44894Y177528D01*
X45529Y177103D01*
X46278Y176954D01*
X49722D01*
X50471Y177103D01*
X51106Y177528D01*
X51530Y178163D01*
X51679Y178911D01*
Y181175D01*
X51530Y181924D01*
X51106Y182559D01*
X50471Y182983D01*
X49722Y183132D01*
X46278D01*
X45529Y182983D01*
X44894Y182559D01*
X44630Y182165D01*
X42213D01*
X42129Y182589D01*
X41992Y182793D01*
X41909Y183212D01*
X41517Y183798D01*
X39428Y185888D01*
X38842Y186279D01*
X38518Y186343D01*
X38394Y186878D01*
X39089Y187411D01*
X39744Y188265D01*
X39915Y188261D01*
X40244Y188124D01*
Y186563D01*
X45756D01*
Y191882D01*
X45767Y191894D01*
X48943D01*
Y191141D01*
X52231D01*
X52422Y190679D01*
X51703Y189960D01*
X48943D01*
Y184842D01*
X52852D01*
X53004Y184342D01*
X52631Y184093D01*
X52149Y183372D01*
X52079Y183021D01*
X56328D01*
X56258Y183372D01*
X55776Y184093D01*
X55055Y184575D01*
X54678Y184650D01*
X54258Y184842D01*
X54258Y185226D01*
Y187405D01*
X56519Y189667D01*
X56911Y190253D01*
X57048Y190944D01*
Y196205D01*
X56911Y196897D01*
X56519Y197483D01*
X55481Y198521D01*
X54895Y198912D01*
X54204Y199050D01*
X53905D01*
X53656Y199299D01*
X53070Y199690D01*
X52378Y199828D01*
X51687Y199690D01*
X51101Y199299D01*
X50709Y198713D01*
X50572Y198022D01*
X50709Y197330D01*
X51091Y196759D01*
X51050Y196540D01*
X50933Y196259D01*
X48943D01*
Y195506D01*
X45019D01*
X44328Y195369D01*
X43742Y194977D01*
X43201Y194437D01*
X40244D01*
Y192876D01*
X39915Y192739D01*
X39744Y192735D01*
X39089Y193589D01*
X38184Y194283D01*
X37130Y194719D01*
X36000Y194868D01*
X34870Y194719D01*
X33816Y194283D01*
X32911Y193589D01*
X32469Y193012D01*
X31969Y193181D01*
Y194650D01*
X29500D01*
Y190500D01*
X29000D01*
Y190000D01*
X26032D01*
Y187188D01*
X24559D01*
X14470Y197277D01*
X13884Y197669D01*
X13193Y197806D01*
X10134D01*
Y200134D01*
X2729D01*
X2577Y200634D01*
X2588Y200641D01*
X3131Y200866D01*
X3706Y200980D01*
X29987D01*
X29999Y200952D01*
X30003Y200910D01*
X30026Y200830D01*
X30031Y200747D01*
X30178Y200184D01*
X30216Y200105D01*
X30236Y200020D01*
X30716Y198963D01*
X30784Y198868D01*
X30836Y198763D01*
X31543Y197843D01*
X31631Y197766D01*
X31705Y197676D01*
X32602Y196940D01*
X32705Y196885D01*
X32798Y196814D01*
X33839Y196301D01*
X33952Y196271D01*
X34058Y196223D01*
X35188Y195960D01*
X35305Y195956D01*
X35420Y195933D01*
X36580D01*
X36695Y195956D01*
X36812Y195960D01*
X37942Y196223D01*
X38048Y196271D01*
X38161Y196301D01*
X39202Y196814D01*
X39295Y196885D01*
X39398Y196940D01*
X40295Y197676D01*
X40369Y197766D01*
X40457Y197843D01*
X41164Y198763D01*
X41216Y198868D01*
X41284Y198963D01*
X41764Y200020D01*
X41780Y200090D01*
X41814Y200153D01*
X41978Y200712D01*
X41991Y200857D01*
X42016Y200980D01*
X68293D01*
X68869Y200866D01*
D02*
G37*
%LPC*%
G36*
X23400Y199000D02*
Y197576D01*
X24824D01*
X24769Y197851D01*
X24331Y198507D01*
X23674Y198945D01*
X23400Y199000D01*
D02*
G37*
G36*
X22400D02*
X22126Y198945D01*
X21469Y198507D01*
X21031Y197851D01*
X20976Y197576D01*
X22400D01*
Y199000D01*
D02*
G37*
G36*
X24824Y196576D02*
X23400D01*
Y195153D01*
X23674Y195207D01*
X24331Y195646D01*
X24769Y196302D01*
X24824Y196576D01*
D02*
G37*
G36*
X22400D02*
X20976D01*
X21031Y196302D01*
X21469Y195646D01*
X22126Y195207D01*
X22400Y195153D01*
Y196576D01*
D02*
G37*
G36*
X28500Y194650D02*
X26032D01*
Y191000D01*
X28500D01*
Y194650D01*
D02*
G37*
G36*
X17500Y185925D02*
Y184301D01*
X19124D01*
X19055Y184652D01*
X18573Y185374D01*
X17851Y185856D01*
X17500Y185925D01*
D02*
G37*
G36*
X16500D02*
X16149Y185856D01*
X15428Y185374D01*
X14945Y184652D01*
X14876Y184301D01*
X16500D01*
Y185925D01*
D02*
G37*
G36*
X19124Y183301D02*
X17500D01*
Y181677D01*
X17851Y181746D01*
X18573Y182229D01*
X19055Y182950D01*
X19124Y183301D01*
D02*
G37*
G36*
X16500D02*
X14876D01*
X14945Y182950D01*
X15428Y182229D01*
X16149Y181746D01*
X16500Y181677D01*
Y183301D01*
D02*
G37*
G36*
X53704Y182021D02*
X52079D01*
X52149Y181670D01*
X52631Y180948D01*
X53353Y180466D01*
X53704Y180396D01*
Y182021D01*
D02*
G37*
G36*
X28896Y179543D02*
X25500D01*
Y176738D01*
X26722D01*
X27554Y176903D01*
X28259Y177374D01*
X28731Y178080D01*
X28896Y178911D01*
Y179543D01*
D02*
G37*
G36*
X24500D02*
X21104D01*
Y178911D01*
X21269Y178080D01*
X21741Y177374D01*
X22446Y176903D01*
X23278Y176738D01*
X24500D01*
Y179543D01*
D02*
G37*
G36*
X49722Y176262D02*
X48500D01*
Y173457D01*
X51896D01*
Y174089D01*
X51731Y174920D01*
X51259Y175626D01*
X50554Y176097D01*
X49722Y176262D01*
D02*
G37*
G36*
X47500D02*
X46278D01*
X45446Y176097D01*
X44741Y175626D01*
X44269Y174920D01*
X44104Y174089D01*
Y173457D01*
X47500D01*
Y176262D01*
D02*
G37*
G36*
X51896Y172457D02*
X48500D01*
Y169651D01*
X49722D01*
X50554Y169817D01*
X51259Y170288D01*
X51731Y170993D01*
X51896Y171825D01*
Y172457D01*
D02*
G37*
G36*
X47500D02*
X44104D01*
Y171825D01*
X44269Y170993D01*
X44741Y170288D01*
X45446Y169817D01*
X46278Y169651D01*
X47500D01*
Y172457D01*
D02*
G37*
G36*
X40831Y175110D02*
X39650D01*
X39112Y175003D01*
X38656Y174698D01*
X38352Y174242D01*
X38245Y173705D01*
Y170949D01*
X38352Y170411D01*
X38656Y169955D01*
X39112Y169651D01*
X39650Y169544D01*
X40831D01*
X41368Y169651D01*
X41824Y169955D01*
X42129Y170411D01*
X42236Y170949D01*
Y173705D01*
X42129Y174242D01*
X41824Y174698D01*
X41368Y175003D01*
X40831Y175110D01*
D02*
G37*
G36*
X37000Y167870D02*
Y166245D01*
X38624D01*
X38555Y166596D01*
X38072Y167318D01*
X37351Y167800D01*
X37000Y167870D01*
D02*
G37*
G36*
X36000D02*
X35649Y167800D01*
X34927Y167318D01*
X34445Y166596D01*
X34376Y166245D01*
X36000D01*
Y167870D01*
D02*
G37*
G36*
X38624Y165245D02*
X37000D01*
Y163621D01*
X37351Y163691D01*
X38072Y164173D01*
X38555Y164894D01*
X38624Y165245D01*
D02*
G37*
G36*
X36000D02*
X34376D01*
X34445Y164894D01*
X34927Y164173D01*
X35649Y163691D01*
X36000Y163621D01*
Y165245D01*
D02*
G37*
G36*
X34000Y139824D02*
X33649Y139754D01*
X32928Y139272D01*
X32445Y138551D01*
X32376Y138200D01*
X34000D01*
Y139824D01*
D02*
G37*
G36*
Y137200D02*
X32376D01*
X32445Y136849D01*
X32928Y136127D01*
X33649Y135645D01*
X34000Y135576D01*
Y137200D01*
D02*
G37*
G36*
X66000Y140170D02*
X64921Y140027D01*
X63915Y139611D01*
X63052Y138948D01*
X62389Y138085D01*
X61973Y137079D01*
X61831Y136000D01*
X61973Y134921D01*
X62389Y133915D01*
X63052Y133052D01*
X63915Y132389D01*
X64921Y131973D01*
X66000Y131831D01*
X67079Y131973D01*
X68085Y132389D01*
X68948Y133052D01*
X69611Y133915D01*
X70027Y134921D01*
X70170Y136000D01*
X70027Y137079D01*
X69611Y138085D01*
X68948Y138948D01*
X68085Y139611D01*
X67079Y140027D01*
X66000Y140170D01*
D02*
G37*
G36*
X6000D02*
X4921Y140027D01*
X3915Y139611D01*
X3052Y138948D01*
X2389Y138085D01*
X1973Y137079D01*
X1830Y136000D01*
X1973Y134921D01*
X2389Y133915D01*
X3052Y133052D01*
X3915Y132389D01*
X4921Y131973D01*
X6000Y131831D01*
X7079Y131973D01*
X8085Y132389D01*
X8948Y133052D01*
X9611Y133915D01*
X10028Y134921D01*
X10170Y136000D01*
X10028Y137079D01*
X9611Y138085D01*
X8948Y138948D01*
X8085Y139611D01*
X7079Y140027D01*
X6000Y140170D01*
D02*
G37*
G36*
X66000Y130169D02*
X64921Y130027D01*
X63915Y129611D01*
X63052Y128948D01*
X62389Y128085D01*
X61973Y127079D01*
X61831Y126000D01*
X61973Y124921D01*
X62389Y123915D01*
X63052Y123052D01*
X63915Y122389D01*
X64921Y121973D01*
X66000Y121830D01*
X67079Y121973D01*
X68085Y122389D01*
X68948Y123052D01*
X69611Y123915D01*
X70027Y124921D01*
X70170Y126000D01*
X70027Y127079D01*
X69611Y128085D01*
X68948Y128948D01*
X68085Y129611D01*
X67079Y130027D01*
X66000Y130169D01*
D02*
G37*
G36*
X6000D02*
X4921Y130027D01*
X3915Y129611D01*
X3052Y128948D01*
X2389Y128085D01*
X1973Y127079D01*
X1830Y126000D01*
X1973Y124921D01*
X2389Y123915D01*
X3052Y123052D01*
X3915Y122389D01*
X4921Y121973D01*
X6000Y121830D01*
X7079Y121973D01*
X8085Y122389D01*
X8948Y123052D01*
X9611Y123915D01*
X10028Y124921D01*
X10170Y126000D01*
X10028Y127079D01*
X9611Y128085D01*
X8948Y128948D01*
X8085Y129611D01*
X7079Y130027D01*
X6000Y130169D01*
D02*
G37*
G36*
X10200Y122106D02*
X9509Y121969D01*
X8923Y121577D01*
X8531Y120991D01*
X8394Y120300D01*
X8463Y119951D01*
X8242Y119752D01*
X8015Y119640D01*
X7079Y120027D01*
X6000Y120169D01*
X4921Y120027D01*
X3915Y119611D01*
X3052Y118948D01*
X2389Y118085D01*
X1973Y117079D01*
X1830Y116000D01*
X1973Y114921D01*
X2389Y113915D01*
X3052Y113052D01*
X3915Y112389D01*
X4921Y111973D01*
X6000Y111830D01*
X7079Y111973D01*
X8085Y112389D01*
X8226Y112498D01*
X8463Y112260D01*
X9049Y111869D01*
X9741Y111731D01*
X9958D01*
X10225Y111231D01*
X10124Y111080D01*
X9979Y110350D01*
X10124Y109621D01*
X10538Y109002D01*
Y108549D01*
X10181Y108015D01*
X9855Y107984D01*
X9634Y108028D01*
X9611Y108085D01*
X8948Y108948D01*
X8085Y109611D01*
X7079Y110027D01*
X6000Y110169D01*
X4921Y110027D01*
X3915Y109611D01*
X3052Y108948D01*
X2389Y108085D01*
X1973Y107079D01*
X1830Y106000D01*
X1973Y104921D01*
X2389Y103915D01*
X3052Y103052D01*
X3915Y102389D01*
X4921Y101973D01*
X6000Y101830D01*
X7079Y101973D01*
X7287Y102059D01*
X9684Y99662D01*
X10118Y99372D01*
X10297Y98874D01*
X10306Y98753D01*
X10124Y98482D01*
X10080Y98259D01*
X9845Y98172D01*
X9551Y98163D01*
X8948Y98948D01*
X8085Y99611D01*
X7079Y100027D01*
X6000Y100170D01*
X4921Y100027D01*
X3915Y99611D01*
X3052Y98948D01*
X2389Y98085D01*
X1973Y97079D01*
X1830Y96000D01*
X1973Y94921D01*
X2389Y93915D01*
X3052Y93052D01*
X3915Y92389D01*
X4921Y91973D01*
X6000Y91830D01*
X7079Y91973D01*
X8085Y92389D01*
X8948Y93052D01*
X9437Y93688D01*
X9558Y93713D01*
X10018Y93649D01*
X10292Y93239D01*
X10538Y92801D01*
X10124Y92182D01*
X9979Y91453D01*
X10124Y90723D01*
X10469Y90207D01*
X10510Y89878D01*
X10469Y89549D01*
X10124Y89033D01*
X9999Y88401D01*
X9696Y88264D01*
X9495Y88236D01*
X8948Y88948D01*
X8085Y89611D01*
X7079Y90027D01*
X6000Y90170D01*
X4921Y90027D01*
X3915Y89611D01*
X3052Y88948D01*
X2389Y88085D01*
X1973Y87079D01*
X1830Y86000D01*
X1973Y84921D01*
X2389Y83915D01*
X3052Y83052D01*
X3915Y82389D01*
X4921Y81973D01*
X6000Y81831D01*
X7079Y81973D01*
X8085Y82389D01*
X8948Y83052D01*
X9611Y83915D01*
X9708Y84149D01*
X10272Y84203D01*
X10538Y83805D01*
X11156Y83392D01*
X11886Y83247D01*
X12794D01*
Y65348D01*
X7358Y59912D01*
X7079Y60027D01*
X6000Y60170D01*
X4921Y60027D01*
X3915Y59611D01*
X3052Y58948D01*
X2389Y58085D01*
X1973Y57079D01*
X1830Y56000D01*
X1973Y54921D01*
X2389Y53915D01*
X3052Y53052D01*
X3915Y52389D01*
X4921Y51973D01*
X6000Y51831D01*
X7079Y51973D01*
X8085Y52389D01*
X8948Y53052D01*
X9611Y53915D01*
X10028Y54921D01*
X10170Y56000D01*
X10028Y57079D01*
X9912Y57358D01*
X15129Y62575D01*
X15591Y62383D01*
Y58146D01*
X7358Y49912D01*
X7079Y50027D01*
X6000Y50169D01*
X4921Y50027D01*
X3915Y49611D01*
X3052Y48948D01*
X2389Y48085D01*
X1973Y47079D01*
X1830Y46000D01*
X1973Y44921D01*
X2389Y43915D01*
X3052Y43052D01*
X3915Y42389D01*
X4921Y41973D01*
X6000Y41831D01*
X7079Y41973D01*
X8085Y42389D01*
X8948Y43052D01*
X9611Y43915D01*
X10028Y44921D01*
X10170Y46000D01*
X10028Y47079D01*
X9912Y47357D01*
X17984Y55429D01*
X18446Y55238D01*
Y41000D01*
X7358Y29912D01*
X7079Y30027D01*
X6000Y30169D01*
X4921Y30027D01*
X3915Y29611D01*
X3052Y28948D01*
X2389Y28085D01*
X1973Y27079D01*
X1830Y26000D01*
X1973Y24921D01*
X2389Y23915D01*
X3052Y23052D01*
X3915Y22389D01*
X4921Y21973D01*
X6000Y21831D01*
X7079Y21973D01*
X8085Y22389D01*
X8948Y23052D01*
X9611Y23915D01*
X10028Y24921D01*
X10170Y26000D01*
X10028Y27079D01*
X9912Y27358D01*
X21095Y38541D01*
X21595Y38333D01*
Y34150D01*
X7358Y19912D01*
X7079Y20027D01*
X6000Y20169D01*
X4921Y20027D01*
X3915Y19611D01*
X3052Y18948D01*
X2389Y18085D01*
X1973Y17079D01*
X1830Y16000D01*
X1973Y14921D01*
X2389Y13915D01*
X3052Y13052D01*
X3915Y12389D01*
X4921Y11972D01*
X6000Y11830D01*
X7079Y11972D01*
X8085Y12389D01*
X8948Y13052D01*
X9611Y13915D01*
X10028Y14921D01*
X10170Y16000D01*
X10028Y17079D01*
X9912Y17358D01*
X24679Y32124D01*
X25070Y32710D01*
X25208Y33402D01*
Y38633D01*
X25708Y38840D01*
X27794Y36754D01*
Y35958D01*
X26943D01*
Y30840D01*
X32258D01*
Y35958D01*
X31406D01*
Y37503D01*
X31269Y38194D01*
X30877Y38780D01*
X28357Y41300D01*
Y41983D01*
X28857Y42190D01*
X34294Y36754D01*
Y35958D01*
X33443D01*
Y30840D01*
X38758D01*
Y33935D01*
X39219Y34127D01*
X39942Y33404D01*
Y30840D01*
X45257D01*
Y34253D01*
X45719Y34445D01*
X54594Y25570D01*
Y15600D01*
X54731Y14909D01*
X55123Y14323D01*
X62088Y7358D01*
X61973Y7079D01*
X61831Y6000D01*
X61973Y4921D01*
X62389Y3915D01*
X63052Y3052D01*
X63915Y2389D01*
X64921Y1973D01*
X66000Y1830D01*
X67079Y1973D01*
X68085Y2389D01*
X68948Y3052D01*
X69611Y3915D01*
X70027Y4921D01*
X70170Y6000D01*
X70027Y7079D01*
X69611Y8085D01*
X68948Y8948D01*
X68085Y9611D01*
X67079Y10028D01*
X66000Y10170D01*
X64921Y10028D01*
X64642Y9912D01*
X58206Y16348D01*
Y20586D01*
X58668Y20777D01*
X62088Y17358D01*
X61973Y17079D01*
X61831Y16000D01*
X61973Y14921D01*
X62389Y13915D01*
X63052Y13052D01*
X63915Y12389D01*
X64921Y11972D01*
X66000Y11830D01*
X67079Y11972D01*
X68085Y12389D01*
X68948Y13052D01*
X69611Y13915D01*
X70027Y14921D01*
X70170Y16000D01*
X70027Y17079D01*
X69611Y18085D01*
X68948Y18948D01*
X68085Y19611D01*
X67079Y20027D01*
X66000Y20169D01*
X64921Y20027D01*
X64642Y19912D01*
X60962Y23592D01*
Y26343D01*
X61424Y26535D01*
X61845Y26114D01*
X61831Y26000D01*
X61973Y24921D01*
X62389Y23915D01*
X63052Y23052D01*
X63915Y22389D01*
X64921Y21973D01*
X66000Y21831D01*
X67079Y21973D01*
X68085Y22389D01*
X68948Y23052D01*
X69611Y23915D01*
X70027Y24921D01*
X70170Y26000D01*
X70027Y27079D01*
X69611Y28085D01*
X68948Y28948D01*
X68085Y29611D01*
X67079Y30027D01*
X66000Y30169D01*
X64921Y30027D01*
X63915Y29611D01*
X63656Y29412D01*
X59336Y33732D01*
X59528Y34194D01*
X62274D01*
X62389Y33915D01*
X63052Y33052D01*
X63915Y32389D01*
X64921Y31973D01*
X66000Y31830D01*
X67079Y31973D01*
X68085Y32389D01*
X68948Y33052D01*
X69611Y33915D01*
X70027Y34921D01*
X70170Y36000D01*
X70027Y37079D01*
X69611Y38085D01*
X68948Y38948D01*
X68085Y39611D01*
X67079Y40027D01*
X66000Y40170D01*
X64921Y40027D01*
X63915Y39611D01*
X63052Y38948D01*
X62389Y38085D01*
X62274Y37806D01*
X59159D01*
X46566Y50399D01*
Y67248D01*
X51437D01*
Y67035D01*
X54148D01*
X54299Y66535D01*
X54292Y66531D01*
X53854Y65874D01*
X53799Y65600D01*
X55723D01*
Y65100D01*
X56223D01*
Y63176D01*
X56231Y63178D01*
X56800Y62878D01*
X56810Y62830D01*
X57201Y62244D01*
X62088Y57358D01*
X61973Y57079D01*
X61831Y56000D01*
X61973Y54921D01*
X62389Y53915D01*
X63052Y53052D01*
X63915Y52389D01*
X64921Y51973D01*
X66000Y51831D01*
X67079Y51973D01*
X68085Y52389D01*
X68948Y53052D01*
X69611Y53915D01*
X70027Y54921D01*
X70170Y56000D01*
X70027Y57079D01*
X69611Y58085D01*
X68948Y58948D01*
X68085Y59611D01*
X67079Y60027D01*
X66000Y60170D01*
X64921Y60027D01*
X64642Y59912D01*
X60285Y64270D01*
Y68507D01*
X60747Y68699D01*
X62088Y67358D01*
X61973Y67079D01*
X61831Y66000D01*
X61973Y64921D01*
X62389Y63915D01*
X63052Y63052D01*
X63915Y62389D01*
X64921Y61973D01*
X66000Y61831D01*
X67079Y61973D01*
X68085Y62389D01*
X68948Y63052D01*
X69611Y63915D01*
X70027Y64921D01*
X70170Y66000D01*
X70027Y67079D01*
X69611Y68085D01*
X68948Y68948D01*
X68085Y69611D01*
X67079Y70027D01*
X66000Y70170D01*
X64921Y70027D01*
X64642Y69912D01*
X63041Y71514D01*
Y72430D01*
X63541Y72676D01*
X63915Y72389D01*
X64921Y71973D01*
X66000Y71830D01*
X67079Y71973D01*
X68085Y72389D01*
X68948Y73052D01*
X69611Y73915D01*
X70027Y74921D01*
X70170Y76000D01*
X70027Y77079D01*
X69611Y78085D01*
X68948Y78948D01*
X68085Y79611D01*
X67079Y80027D01*
X66000Y80169D01*
X64921Y80027D01*
X63915Y79611D01*
X63052Y78948D01*
X62778Y78592D01*
X62278Y78608D01*
X62159Y78786D01*
X60247Y80698D01*
Y83273D01*
X60844Y83392D01*
X61462Y83805D01*
X61729Y84203D01*
X62292Y84149D01*
X62389Y83915D01*
X63052Y83052D01*
X63915Y82389D01*
X64921Y81973D01*
X66000Y81831D01*
X67079Y81973D01*
X68085Y82389D01*
X68948Y83052D01*
X69611Y83915D01*
X70027Y84921D01*
X70170Y86000D01*
X70027Y87079D01*
X69611Y88085D01*
X68948Y88948D01*
X68085Y89611D01*
X67079Y90027D01*
X66000Y90170D01*
X64974Y90035D01*
X62692Y92316D01*
X62863Y92756D01*
X63344Y92827D01*
X63915Y92389D01*
X64921Y91973D01*
X66000Y91830D01*
X67079Y91973D01*
X68085Y92389D01*
X68948Y93052D01*
X69611Y93915D01*
X70027Y94921D01*
X70170Y96000D01*
X70027Y97079D01*
X69611Y98085D01*
X68948Y98948D01*
X68085Y99611D01*
X67079Y100027D01*
X66000Y100170D01*
X64921Y100027D01*
X63915Y99611D01*
X63052Y98948D01*
X62449Y98163D01*
X62154Y98172D01*
X61920Y98259D01*
X61876Y98482D01*
X61462Y99100D01*
Y99553D01*
X61876Y100172D01*
X62021Y100902D01*
X61876Y101631D01*
X61531Y102147D01*
X61490Y102476D01*
X61531Y102805D01*
X61876Y103322D01*
X61951Y103700D01*
X62048Y103748D01*
X62480Y103797D01*
X63052Y103052D01*
X63915Y102389D01*
X64921Y101973D01*
X66000Y101830D01*
X67079Y101973D01*
X68085Y102389D01*
X68948Y103052D01*
X69611Y103915D01*
X70027Y104921D01*
X70170Y106000D01*
X70027Y107079D01*
X69611Y108085D01*
X68948Y108948D01*
X68085Y109611D01*
X67079Y110027D01*
X66000Y110169D01*
X64921Y110027D01*
X63915Y109611D01*
X63052Y108948D01*
X62389Y108085D01*
X62366Y108028D01*
X62145Y107984D01*
X61819Y108015D01*
X61462Y108549D01*
X61708Y108986D01*
X62076Y109538D01*
X62138Y109850D01*
X58441D01*
X54744D01*
X54806Y109538D01*
X54866Y109448D01*
X54630Y109007D01*
X51201D01*
X50510Y108870D01*
X49924Y108478D01*
X48934Y107488D01*
X42982D01*
X42291Y107351D01*
X41705Y106959D01*
X30635Y95890D01*
X30243Y95303D01*
X30190Y95034D01*
X20355Y85199D01*
X19893Y85391D01*
Y86336D01*
X19756Y87027D01*
X19364Y87613D01*
X17828Y89149D01*
X17992Y89692D01*
X18191Y89731D01*
X18777Y90123D01*
X19169Y90709D01*
X19306Y91400D01*
X19169Y92091D01*
X18777Y92677D01*
X18762Y92692D01*
X18176Y93084D01*
X17485Y93221D01*
X17345D01*
X17109Y93662D01*
X17194Y93790D01*
X17256Y94102D01*
X13559D01*
Y95102D01*
X17256D01*
X17194Y95415D01*
X17094Y95565D01*
X17395Y96015D01*
X17500Y95994D01*
X18191Y96131D01*
X18777Y96523D01*
X19169Y97109D01*
X19306Y97800D01*
X19169Y98491D01*
X18777Y99077D01*
X18191Y99469D01*
X17500Y99606D01*
X17174Y99541D01*
X16873Y99992D01*
X16994Y100172D01*
X17139Y100902D01*
X16994Y101631D01*
X16984Y101646D01*
X17120Y101940D01*
X17284Y102097D01*
X17299Y102094D01*
X17990Y102231D01*
X18576Y102623D01*
X18968Y103209D01*
X19106Y103900D01*
Y104051D01*
X18968Y104742D01*
X18854Y104912D01*
X18996Y105601D01*
X19177Y105723D01*
X19569Y106309D01*
X19706Y107000D01*
X19569Y107691D01*
X19306Y108085D01*
X19475Y108609D01*
X19496Y108633D01*
X19742Y108681D01*
X20328Y109073D01*
X20677Y109423D01*
X21069Y110009D01*
X21206Y110700D01*
X21069Y111391D01*
X20677Y111977D01*
X20091Y112369D01*
X19400Y112506D01*
X18709Y112369D01*
X18391Y112157D01*
X17114D01*
X16879Y112598D01*
X16994Y112770D01*
X17139Y113500D01*
X16994Y114230D01*
X16649Y114746D01*
X16609Y115075D01*
X16649Y115404D01*
X16994Y115920D01*
X17139Y116650D01*
X16994Y117379D01*
X16580Y117998D01*
X15962Y118411D01*
X15232Y118556D01*
X13655D01*
Y118652D01*
X13517Y119343D01*
X13126Y119929D01*
X11477Y121577D01*
X10891Y121969D01*
X10200Y122106D01*
D02*
G37*
G36*
X36500Y108342D02*
Y106718D01*
X38124D01*
X38055Y107069D01*
X37573Y107790D01*
X36851Y108272D01*
X36500Y108342D01*
D02*
G37*
G36*
X35500D02*
X35149Y108272D01*
X34427Y107790D01*
X33945Y107069D01*
X33876Y106718D01*
X35500D01*
Y108342D01*
D02*
G37*
G36*
X38124Y105718D02*
X36500D01*
Y104093D01*
X36851Y104163D01*
X37573Y104645D01*
X38055Y105367D01*
X38124Y105718D01*
D02*
G37*
G36*
X35500D02*
X33876D01*
X33945Y105367D01*
X34427Y104645D01*
X35149Y104163D01*
X35500Y104093D01*
Y105718D01*
D02*
G37*
G36*
X6000Y80169D02*
X4921Y80027D01*
X3915Y79611D01*
X3052Y78948D01*
X2389Y78085D01*
X1973Y77079D01*
X1830Y76000D01*
X1973Y74921D01*
X2389Y73915D01*
X3052Y73052D01*
X3915Y72389D01*
X4921Y71973D01*
X6000Y71830D01*
X7079Y71973D01*
X8085Y72389D01*
X8948Y73052D01*
X9611Y73915D01*
X10028Y74921D01*
X10170Y76000D01*
X10028Y77079D01*
X9611Y78085D01*
X8948Y78948D01*
X8085Y79611D01*
X7079Y80027D01*
X6000Y80169D01*
D02*
G37*
G36*
X55223Y64600D02*
X53799D01*
X53854Y64326D01*
X54292Y63669D01*
X54949Y63231D01*
X55223Y63176D01*
Y64600D01*
D02*
G37*
G36*
X6000Y70170D02*
X4921Y70027D01*
X3915Y69611D01*
X3052Y68948D01*
X2389Y68085D01*
X1973Y67079D01*
X1830Y66000D01*
X1973Y64921D01*
X2389Y63915D01*
X3052Y63052D01*
X3915Y62389D01*
X4921Y61973D01*
X6000Y61831D01*
X7079Y61973D01*
X8085Y62389D01*
X8948Y63052D01*
X9611Y63915D01*
X10028Y64921D01*
X10170Y66000D01*
X10028Y67079D01*
X9611Y68085D01*
X8948Y68948D01*
X8085Y69611D01*
X7079Y70027D01*
X6000Y70170D01*
D02*
G37*
G36*
X56900Y48124D02*
Y46500D01*
X58524D01*
X58455Y46851D01*
X57973Y47572D01*
X57251Y48055D01*
X56900Y48124D01*
D02*
G37*
G36*
X55900D02*
X55549Y48055D01*
X54827Y47572D01*
X54346Y46851D01*
X54276Y46500D01*
X55900D01*
Y48124D01*
D02*
G37*
G36*
X58524Y45500D02*
X56900D01*
Y43876D01*
X57251Y43945D01*
X57973Y44427D01*
X58455Y45149D01*
X58524Y45500D01*
D02*
G37*
G36*
X55900D02*
X54276D01*
X54346Y45149D01*
X54827Y44427D01*
X55549Y43945D01*
X55900Y43876D01*
Y45500D01*
D02*
G37*
G36*
X66000Y50169D02*
X64921Y50027D01*
X63915Y49611D01*
X63052Y48948D01*
X62389Y48085D01*
X61973Y47079D01*
X61831Y46000D01*
X61973Y44921D01*
X62389Y43915D01*
X63052Y43052D01*
X63915Y42389D01*
X64921Y41973D01*
X66000Y41831D01*
X67079Y41973D01*
X68085Y42389D01*
X68948Y43052D01*
X69611Y43915D01*
X70027Y44921D01*
X70170Y46000D01*
X70027Y47079D01*
X69611Y48085D01*
X68948Y48948D01*
X68085Y49611D01*
X67079Y50027D01*
X66000Y50169D01*
D02*
G37*
G36*
X6000Y40170D02*
X4921Y40027D01*
X3915Y39611D01*
X3052Y38948D01*
X2389Y38085D01*
X1973Y37079D01*
X1830Y36000D01*
X1973Y34921D01*
X2389Y33915D01*
X3052Y33052D01*
X3915Y32389D01*
X4921Y31973D01*
X6000Y31830D01*
X7079Y31973D01*
X8085Y32389D01*
X8948Y33052D01*
X9611Y33915D01*
X10028Y34921D01*
X10170Y36000D01*
X10028Y37079D01*
X9611Y38085D01*
X8948Y38948D01*
X8085Y39611D01*
X7079Y40027D01*
X6000Y40170D01*
D02*
G37*
G36*
X48900Y29954D02*
Y28330D01*
X50524D01*
X50455Y28681D01*
X49973Y29402D01*
X49251Y29884D01*
X48900Y29954D01*
D02*
G37*
G36*
X47900D02*
X47549Y29884D01*
X46828Y29402D01*
X46345Y28681D01*
X46276Y28330D01*
X47900D01*
Y29954D01*
D02*
G37*
G36*
X50524Y27330D02*
X48900D01*
Y25706D01*
X49251Y25775D01*
X49973Y26257D01*
X50455Y26979D01*
X50524Y27330D01*
D02*
G37*
G36*
X47900D02*
X46276D01*
X46345Y26979D01*
X46828Y26257D01*
X47549Y25775D01*
X47900Y25706D01*
Y27330D01*
D02*
G37*
G36*
X6500Y10318D02*
Y6500D01*
X10318D01*
X10235Y7135D01*
X9797Y8192D01*
X9100Y9100D01*
X8192Y9797D01*
X7135Y10235D01*
X6500Y10318D01*
D02*
G37*
G36*
X5500D02*
X4865Y10235D01*
X3808Y9797D01*
X2900Y9100D01*
X2203Y8192D01*
X1765Y7135D01*
X1682Y6500D01*
X5500D01*
Y10318D01*
D02*
G37*
G36*
X38758Y29659D02*
X33443D01*
Y24541D01*
X34294D01*
Y21756D01*
X32163D01*
Y16244D01*
X33724D01*
X33861Y15915D01*
X33865Y15744D01*
X33011Y15089D01*
X32317Y14184D01*
X31881Y13130D01*
X31732Y12000D01*
X31881Y10870D01*
X32317Y9816D01*
X33011Y8911D01*
X33588Y8468D01*
X33419Y7969D01*
X31950D01*
Y5500D01*
X36100D01*
X40250D01*
Y7969D01*
X38781D01*
X38612Y8468D01*
X39189Y8911D01*
X39883Y9816D01*
X40319Y10870D01*
X40468Y12000D01*
X40319Y13130D01*
X39883Y14184D01*
X39189Y15089D01*
X38335Y15744D01*
X38339Y15915D01*
X38476Y16244D01*
X40037D01*
Y21756D01*
X37906D01*
Y24541D01*
X38758D01*
Y29659D01*
D02*
G37*
G36*
X32258D02*
X26943D01*
Y26487D01*
X26908Y26313D01*
Y23481D01*
X25182Y21756D01*
X19863D01*
Y16244D01*
X21424D01*
X21561Y15915D01*
X21565Y15744D01*
X20711Y15089D01*
X20017Y14184D01*
X19581Y13130D01*
X19432Y12000D01*
X19581Y10870D01*
X20017Y9816D01*
X20711Y8911D01*
X21288Y8468D01*
X21119Y7969D01*
X19650D01*
Y5500D01*
X23800D01*
X27950D01*
Y7969D01*
X26481D01*
X26312Y8468D01*
X26889Y8911D01*
X27583Y9816D01*
X28019Y10870D01*
X28168Y12000D01*
X28019Y13130D01*
X27583Y14184D01*
X26889Y15089D01*
X26035Y15744D01*
X26039Y15915D01*
X26176Y16244D01*
X27737D01*
Y19201D01*
X29991Y21456D01*
X30383Y22042D01*
X30520Y22733D01*
Y24541D01*
X32258D01*
Y29659D01*
D02*
G37*
G36*
X45257D02*
X39942D01*
Y24541D01*
X41679D01*
Y22733D01*
X41817Y22042D01*
X42208Y21456D01*
X44463Y19201D01*
Y16244D01*
X46024D01*
X46161Y15915D01*
X46165Y15744D01*
X45311Y15089D01*
X44617Y14184D01*
X44181Y13130D01*
X44032Y12000D01*
X44181Y10870D01*
X44617Y9816D01*
X45311Y8911D01*
X45888Y8468D01*
X45719Y7969D01*
X44250D01*
Y5500D01*
X48400D01*
X52550D01*
Y7969D01*
X51081D01*
X50912Y8468D01*
X51489Y8911D01*
X52183Y9816D01*
X52619Y10870D01*
X52768Y12000D01*
X52619Y13130D01*
X52183Y14184D01*
X51489Y15089D01*
X50635Y15744D01*
X50639Y15915D01*
X50776Y16244D01*
X52337D01*
Y21756D01*
X47018D01*
X45292Y23481D01*
Y26313D01*
X45257Y26487D01*
Y29659D01*
D02*
G37*
G36*
X59302Y6217D02*
Y4593D01*
X60927D01*
X60857Y4944D01*
X60375Y5666D01*
X59653Y6148D01*
X59302Y6217D01*
D02*
G37*
G36*
X58302D02*
X57951Y6148D01*
X57230Y5666D01*
X56748Y4944D01*
X56678Y4593D01*
X58302D01*
Y6217D01*
D02*
G37*
G36*
X52550Y4500D02*
X48900D01*
Y2032D01*
X52550D01*
Y4500D01*
D02*
G37*
G36*
X47900D02*
X44250D01*
Y2032D01*
X47900D01*
Y4500D01*
D02*
G37*
G36*
X40250D02*
X36600D01*
Y2032D01*
X40250D01*
Y4500D01*
D02*
G37*
G36*
X35600D02*
X31950D01*
Y2032D01*
X35600D01*
Y4500D01*
D02*
G37*
G36*
X27950D02*
X24300D01*
Y2032D01*
X27950D01*
Y4500D01*
D02*
G37*
G36*
X23300D02*
X19650D01*
Y2032D01*
X23300D01*
Y4500D01*
D02*
G37*
G36*
X60927Y3593D02*
X59302D01*
Y1969D01*
X59653Y2039D01*
X60375Y2520D01*
X60857Y3242D01*
X60927Y3593D01*
D02*
G37*
G36*
X58302D02*
X56678D01*
X56748Y3242D01*
X57230Y2520D01*
X57951Y2039D01*
X58302Y1969D01*
Y3593D01*
D02*
G37*
G36*
X10318Y5500D02*
X6500D01*
Y1682D01*
X7135Y1765D01*
X8192Y2203D01*
X9100Y2900D01*
X9797Y3808D01*
X10235Y4865D01*
X10318Y5500D01*
D02*
G37*
G36*
X5500D02*
X1682D01*
X1765Y4865D01*
X2203Y3808D01*
X2900Y2900D01*
X3808Y2203D01*
X4865Y1765D01*
X5500Y1682D01*
Y5500D01*
D02*
G37*
%LPD*%
G36*
X46595Y82218D02*
X46404Y82070D01*
X46095Y81912D01*
X45449Y82041D01*
X44719Y81895D01*
X44203Y81551D01*
X43874Y81510D01*
X43545Y81551D01*
X43029Y81895D01*
X42299Y82041D01*
X41570Y81895D01*
X41053Y81551D01*
X40724Y81510D01*
X40395Y81551D01*
X39879Y81895D01*
X39150Y82041D01*
X38420Y81895D01*
X37904Y81551D01*
X37575Y81510D01*
X37246Y81551D01*
X36730Y81895D01*
X36000Y82041D01*
X35270Y81895D01*
X34754Y81551D01*
X34425Y81510D01*
X34096Y81551D01*
X33580Y81895D01*
X32850Y82041D01*
X32121Y81895D01*
X31605Y81551D01*
X31276Y81510D01*
X30947Y81551D01*
X30430Y81895D01*
X29701Y82041D01*
X28971Y81895D01*
X28455Y81551D01*
X28126Y81510D01*
X27797Y81551D01*
X27281Y81895D01*
X26551Y82041D01*
X25822Y81895D01*
X25305Y81551D01*
X24976Y81510D01*
X24647Y81551D01*
X24131Y81895D01*
X23402Y82041D01*
X22916Y81944D01*
X22670Y82405D01*
X33189Y92925D01*
X33581Y93511D01*
X33635Y93780D01*
X43730Y103876D01*
X46595D01*
Y82218D01*
D02*
G37*
%LPC*%
G36*
X36500Y91273D02*
Y89649D01*
X38124D01*
X38055Y90000D01*
X37573Y90722D01*
X36851Y91204D01*
X36500Y91273D01*
D02*
G37*
G36*
X35500D02*
X35149Y91204D01*
X34427Y90722D01*
X33945Y90000D01*
X33876Y89649D01*
X35500D01*
Y91273D01*
D02*
G37*
G36*
X38124Y88649D02*
X36500D01*
Y87025D01*
X36851Y87094D01*
X37573Y87577D01*
X38055Y88298D01*
X38124Y88649D01*
D02*
G37*
G36*
X35500D02*
X33876D01*
X33945Y88298D01*
X34427Y87577D01*
X35149Y87094D01*
X35500Y87025D01*
Y88649D01*
D02*
G37*
%LPD*%
D14*
X57895Y5000D02*
X58802Y4093D01*
X48400Y5000D02*
X57895D01*
X32850Y45971D02*
X38856Y39965D01*
X44760Y49651D02*
X58411Y36000D01*
X42502Y33399D02*
X42600D01*
X38856Y37045D02*
X42502Y33399D01*
X58411Y36000D02*
X66000D01*
X36000Y46719D02*
Y78461D01*
X44760Y49651D02*
Y72706D01*
X65096Y26904D02*
X66000Y26000D01*
X59156Y22844D02*
Y27460D01*
X38856Y37045D02*
Y39965D01*
X42004Y48509D02*
Y73848D01*
X56400Y15600D02*
Y26319D01*
X63609Y26904D02*
X65096D01*
X39150Y47466D02*
X59156Y27460D01*
X42004Y48509D02*
X63609Y26904D01*
X36000Y46719D02*
X56400Y26319D01*
X39150Y47466D02*
Y78461D01*
X32850Y45971D02*
Y78461D01*
X6000Y56000D02*
X14600Y64600D01*
X13559Y85154D02*
X14509D01*
X14600Y85063D01*
Y64600D02*
Y85063D01*
X22900Y197076D02*
X28934D01*
X29000Y197010D01*
X53157Y197243D02*
X54204D01*
X52378Y198022D02*
X53157Y197243D01*
X63548Y170786D02*
Y172270D01*
X60882Y164820D02*
Y168120D01*
X63548Y170786D01*
Y172270D02*
X66000Y174722D01*
X45743Y149682D02*
X60882Y164820D01*
X45743Y126488D02*
Y149682D01*
X66000Y174722D02*
Y176000D01*
X29000Y190500D02*
Y197010D01*
X29141Y108744D02*
X32041D01*
X16150Y121734D02*
X29141Y108744D01*
X16150Y121734D02*
Y147350D01*
X36412Y114071D02*
Y119191D01*
X36000Y119602D02*
X36412Y119191D01*
Y114071D02*
X40133Y110350D01*
X32850Y117398D02*
Y123343D01*
Y117398D02*
X33656Y116593D01*
Y110359D02*
Y116593D01*
X32041Y108744D02*
X33656Y110359D01*
X30900Y111500D02*
Y115451D01*
X29701Y116650D02*
X30900Y115451D01*
X29701Y116650D02*
Y123343D01*
X48810Y114694D02*
X55600Y121485D01*
X48598Y114694D02*
X48810D01*
X51748Y97714D02*
X58403D01*
X58190Y103800D02*
X58441Y104051D01*
X51748Y103800D02*
X58190D01*
X58239Y100700D02*
X58441Y100902D01*
X51710Y100700D02*
X58239D01*
X51157Y82830D02*
Y90710D01*
X51453Y91005D01*
X58126Y72923D02*
Y74071D01*
X54504Y70004D02*
X54602D01*
X58342Y72522D02*
X58479Y72386D01*
Y63521D02*
Y72386D01*
X58126Y72923D02*
X58342Y72706D01*
Y72522D02*
Y72706D01*
X61234Y70766D02*
Y73527D01*
X55587Y65236D02*
Y69020D01*
X55685Y76512D02*
X58126Y74071D01*
X54602Y70004D02*
X55587Y69020D01*
X61234Y70766D02*
X66000Y66000D01*
X60882Y73880D02*
Y77509D01*
Y73880D02*
X61234Y73527D01*
X58479Y63521D02*
X66000Y56000D01*
X55587Y65236D02*
X55723Y65100D01*
X55685Y76512D02*
Y80732D01*
X17299Y103900D02*
Y104051D01*
X13559D02*
X17299D01*
X13559Y107201D02*
X13760Y107000D01*
X17900D01*
X58441Y79950D02*
X60882Y77509D01*
X48598Y70004D02*
Y78461D01*
X36100Y19000D02*
Y27100D01*
X13559Y91453D02*
X13597Y91415D01*
X17485D01*
X17500Y91400D01*
X29600Y33399D02*
Y37503D01*
X26551Y40551D02*
X29600Y37503D01*
X26551Y40551D02*
Y78461D01*
X6000Y16000D02*
X23402Y33402D01*
Y78461D01*
X20252Y40252D02*
Y78461D01*
X6000Y26000D02*
X20252Y40252D01*
X17398Y57398D02*
Y83282D01*
X6000Y46000D02*
X17398Y57398D01*
Y83282D02*
X18087Y83971D01*
X13559Y88303D02*
X13597Y88266D01*
X16157D01*
X18087Y86336D01*
Y83971D02*
Y86336D01*
X20843Y83132D02*
X31912Y94202D01*
Y94612D02*
X42982Y105682D01*
X31912Y94202D02*
Y94612D01*
X20712Y83132D02*
X20843D01*
X42982Y105682D02*
X48598D01*
X13597Y94640D02*
X13634Y94602D01*
X24385D01*
X40133Y110350D01*
X6000Y105900D02*
Y106000D01*
Y105900D02*
X10961Y100939D01*
X13521D01*
X13559Y100902D01*
X54256Y82161D02*
Y83629D01*
X53913Y83971D02*
X54256Y83629D01*
X53913Y83971D02*
Y86336D01*
X55843Y88266D01*
X58403D01*
X36000Y119602D02*
Y123343D01*
X19050Y110350D02*
X19400Y110700D01*
X10200Y120300D02*
X11848Y118652D01*
X13559Y110350D02*
X19050D01*
X58441Y79950D02*
Y85154D01*
X6000Y6000D02*
X6500Y5500D01*
X23300D01*
X23800Y5000D01*
X36100D02*
X48400D01*
X23800D02*
X36100D01*
X23800Y19000D02*
X24981D01*
X28714Y22733D01*
Y26313D01*
X29502Y27100D01*
X29600D01*
X47219Y19000D02*
X48400D01*
X43486Y22733D02*
X47219Y19000D01*
X43486Y22733D02*
Y26313D01*
X42698Y27100D02*
X43486Y26313D01*
X42600Y27100D02*
X42698D01*
X36100Y33399D02*
Y37503D01*
X29701Y43902D02*
Y78461D01*
Y43902D02*
X36100Y37503D01*
X56400Y15600D02*
X66000Y6000D01*
X59156Y22844D02*
X66000Y16000D01*
X42262Y78423D02*
X42299Y78461D01*
X42262Y74105D02*
Y78423D01*
X42004Y73848D02*
X42262Y74105D01*
X44760Y72706D02*
X45449Y73395D01*
Y78461D01*
X48561Y78498D02*
X48598Y78461D01*
X48402Y105485D02*
X48598Y105682D01*
X51453Y81067D02*
X51710Y80809D01*
X48402Y81688D02*
Y105485D01*
X51710Y78498D02*
Y80809D01*
X54256Y82161D02*
X55685Y80732D01*
X48402Y81688D02*
X48561Y81529D01*
X51710Y78498D02*
X51748Y78461D01*
X51157Y82830D02*
X51453Y82534D01*
X48561Y78498D02*
Y81529D01*
X51453Y81067D02*
Y82534D01*
X58403Y88266D02*
X58441Y88303D01*
X55600Y121485D02*
Y130300D01*
X51201Y107201D02*
X58441D01*
X49682Y105682D02*
X51201Y107201D01*
X48598Y105682D02*
X49682D01*
X58403Y97714D02*
X58441Y97752D01*
Y94602D02*
X58479Y94640D01*
X63362D01*
X64722Y96000D01*
X66000D01*
X58441Y91453D02*
X58479Y91415D01*
X61039D01*
X66000Y86454D01*
Y86000D02*
Y86454D01*
X11939Y116650D02*
X13559D01*
X11848Y116741D02*
X11939Y116650D01*
X11848Y116741D02*
Y118652D01*
X12700Y125997D02*
Y139300D01*
Y125997D02*
X13149Y125549D01*
X9236Y154264D02*
X16150Y147350D01*
X6000Y146000D02*
X12700Y139300D01*
X6000Y116000D02*
X7278D01*
X9741Y113538D01*
X13521D01*
X13559Y113500D01*
X29134Y172642D02*
X32760D01*
X51600Y187401D02*
X51698D01*
X55242Y190944D01*
Y196205D01*
X54204Y197243D02*
X55242Y196205D01*
X25000Y169078D02*
Y172957D01*
X59340Y139340D02*
X66000Y146000D01*
X55600Y136205D02*
X56255Y136860D01*
Y140900D01*
X58441Y116650D02*
X59249D01*
X59340Y116741D01*
Y139340D01*
X51748Y123343D02*
Y141748D01*
X66000Y156000D01*
X48598Y123343D02*
Y148598D01*
X66000Y166000D01*
X45449Y123343D02*
X45487Y123380D01*
Y126232D01*
X45743Y126488D01*
X40133Y110350D02*
X58441D01*
X35605Y164851D02*
X36500Y165745D01*
Y176500D01*
X35605Y131800D02*
Y164851D01*
X6000Y156000D02*
X7278D01*
X9014Y154264D01*
X9236D01*
X6000Y166000D02*
X20154Y151847D01*
Y124917D02*
Y151847D01*
X23402Y135940D02*
Y153053D01*
X12922Y163532D02*
X23402Y153053D01*
X23106Y135644D02*
X23402Y135940D01*
X23106Y127956D02*
X23402Y127660D01*
X25861Y129098D02*
Y134502D01*
X23402Y123343D02*
Y127660D01*
X26158Y134798D02*
Y154751D01*
X25861Y129098D02*
X26453Y128506D01*
X16072Y164837D02*
X26158Y154751D01*
X25861Y134502D02*
X26158Y134798D01*
X23106Y127956D02*
Y135644D01*
X26453Y124917D02*
Y128506D01*
X25000Y180043D02*
X25591D01*
X29700Y131800D02*
X29700Y131800D01*
X32760Y172327D02*
Y172642D01*
X40240Y180358D02*
Y180673D01*
X47685Y180358D02*
X48000Y180043D01*
X25000Y172957D02*
X25315Y172642D01*
X29701Y123343D02*
Y124917D01*
X29700Y124917D02*
X29701Y124917D01*
X29700Y124917D02*
Y131800D01*
X32760Y180673D02*
Y181461D01*
Y182521D01*
X38151Y184610D02*
X40240Y182521D01*
Y180673D02*
Y182521D01*
X47409Y172957D02*
X48000D01*
X16072Y164837D02*
Y175928D01*
X29700Y131800D02*
Y172076D01*
X6000Y196000D02*
X13193D01*
X35605Y131800D02*
X35902Y131504D01*
X25315Y172642D02*
X29134D01*
X29700Y172076D01*
X25591Y180043D02*
X29134Y176500D01*
X36500D02*
Y180673D01*
X29134Y176500D02*
X36500D01*
X43866D01*
X40240Y180358D02*
X47685D01*
X34850Y184610D02*
X38151D01*
X45019Y193700D02*
X51600D01*
X43000Y191681D02*
X45019Y193700D01*
X6000Y186000D02*
X16072Y175928D01*
X36000Y123343D02*
Y124819D01*
X35902Y124917D02*
Y131504D01*
Y124917D02*
X36000Y124819D01*
X28839Y185382D02*
X32760Y181461D01*
Y182521D02*
X34850Y184610D01*
X43866Y176500D02*
X47409Y172957D01*
X43000Y190500D02*
Y191681D01*
X6000Y176000D02*
X12922Y169078D01*
Y163532D02*
Y169078D01*
X23811Y185382D02*
X28839D01*
X13193Y196000D02*
X23811Y185382D01*
D15*
X54400Y113400D02*
X58341D01*
X17100Y103900D02*
X17299D01*
X13559Y97752D02*
X13607Y97800D01*
X17500D01*
X58341Y113400D02*
X58441Y113500D01*
D16*
X6000Y56000D02*
D03*
Y66000D02*
D03*
Y76000D02*
D03*
Y86000D02*
D03*
Y96000D02*
D03*
Y106000D02*
D03*
Y116000D02*
D03*
Y186000D02*
D03*
Y176000D02*
D03*
Y166000D02*
D03*
Y156000D02*
D03*
Y146000D02*
D03*
Y136000D02*
D03*
Y126000D02*
D03*
Y46000D02*
D03*
Y36000D02*
D03*
Y26000D02*
D03*
Y16000D02*
D03*
Y6000D02*
D03*
X66000D02*
D03*
Y16000D02*
D03*
Y26000D02*
D03*
Y36000D02*
D03*
Y46000D02*
D03*
Y126000D02*
D03*
Y136000D02*
D03*
Y146000D02*
D03*
Y156000D02*
D03*
Y166000D02*
D03*
Y176000D02*
D03*
Y186000D02*
D03*
Y116000D02*
D03*
Y106000D02*
D03*
Y96000D02*
D03*
Y86000D02*
D03*
Y76000D02*
D03*
Y66000D02*
D03*
Y56000D02*
D03*
D17*
X6000Y196000D02*
D03*
X66000D02*
D03*
D18*
X36000Y190500D02*
D03*
X23800Y12000D02*
D03*
X36100D02*
D03*
X48400D02*
D03*
D19*
X58802Y4093D02*
D03*
X54204Y182521D02*
D03*
X17000Y183801D02*
D03*
X36500Y165745D02*
D03*
X34500Y137700D02*
D03*
X36000Y106218D02*
D03*
X56400Y46000D02*
D03*
X48400Y27830D02*
D03*
X36000Y89149D02*
D03*
D20*
X22900Y197076D02*
D03*
X52378Y198022D02*
D03*
X30900Y111500D02*
D03*
X54400Y113400D02*
D03*
X48598Y114694D02*
D03*
X51748Y97714D02*
D03*
Y103800D02*
D03*
X51710Y100700D02*
D03*
X51453Y91005D02*
D03*
X55723Y65100D02*
D03*
X17500Y91400D02*
D03*
X20712Y83132D02*
D03*
X17500Y97800D02*
D03*
X36000Y119602D02*
D03*
X19400Y110700D02*
D03*
X10200Y120300D02*
D03*
X17900Y107000D02*
D03*
X17100Y103900D02*
D03*
X48598Y105682D02*
D03*
X13149Y125549D02*
D03*
X25000Y169078D02*
D03*
X56255Y140900D02*
D03*
D21*
X25000Y180043D02*
D03*
Y172957D02*
D03*
X48000Y180043D02*
D03*
Y172957D02*
D03*
D22*
X54504Y70004D02*
D03*
X48598D02*
D03*
X29700Y131800D02*
D03*
X35605D02*
D03*
D23*
X40240Y172327D02*
D03*
X32760D02*
D03*
X40240Y180673D02*
D03*
X36500D02*
D03*
X32760D02*
D03*
D24*
X29000Y190500D02*
D03*
X43000D02*
D03*
D25*
X23800Y19000D02*
D03*
Y5000D02*
D03*
X36100Y19000D02*
D03*
Y5000D02*
D03*
X48400D02*
D03*
Y19000D02*
D03*
D26*
X42600Y27100D02*
D03*
Y33399D02*
D03*
X29600D02*
D03*
Y27100D02*
D03*
X36100Y33399D02*
D03*
Y27100D02*
D03*
X51600Y187401D02*
D03*
Y193700D02*
D03*
D27*
X13559Y85154D02*
D03*
Y88303D02*
D03*
Y91453D02*
D03*
Y94602D02*
D03*
Y97752D02*
D03*
Y100902D02*
D03*
Y104051D02*
D03*
Y107201D02*
D03*
Y110350D02*
D03*
Y113500D02*
D03*
Y116650D02*
D03*
X58441D02*
D03*
Y113500D02*
D03*
Y110350D02*
D03*
Y107201D02*
D03*
Y104051D02*
D03*
Y100902D02*
D03*
Y97752D02*
D03*
Y94602D02*
D03*
Y91453D02*
D03*
Y88303D02*
D03*
Y85154D02*
D03*
D28*
X20252Y123343D02*
D03*
X23402D02*
D03*
X26551D02*
D03*
X29701D02*
D03*
X32850D02*
D03*
X36000D02*
D03*
X39150D02*
D03*
X42299D02*
D03*
X45449D02*
D03*
X48598D02*
D03*
X51748D02*
D03*
Y78461D02*
D03*
X48598D02*
D03*
X45449D02*
D03*
X42299D02*
D03*
X39150D02*
D03*
X36000D02*
D03*
X32850D02*
D03*
X29701D02*
D03*
X26551D02*
D03*
X23402D02*
D03*
X20252D02*
D03*
D29*
X55600Y136205D02*
D03*
Y130300D02*
D03*
D30*
X57446Y179416D02*
X59915Y181885D01*
X60595Y178112D02*
X63064Y180581D01*
X59915Y189915D02*
X66000Y196000D01*
Y184828D02*
Y186000D01*
X60595Y172009D02*
Y178112D01*
X59915Y181885D02*
Y189915D01*
X54779Y170648D02*
X57446Y173314D01*
Y179416D01*
X63064Y181892D02*
X66000Y184828D01*
X63064Y180581D02*
Y181892D01*
X54779Y167348D02*
Y170648D01*
X57929Y166043D02*
Y169343D01*
X60595Y172009D01*
X39150Y151718D02*
X54779Y167348D01*
X42299Y150414D02*
X57929Y166043D01*
X39150Y135075D02*
Y151718D01*
X42299Y136380D02*
Y150414D01*
Y136380D02*
X42790Y135889D01*
X39150Y135075D02*
X39641Y134584D01*
X39150Y128525D02*
X39641Y129016D01*
X42790Y127711D02*
Y135889D01*
X42299Y127220D02*
X42790Y127711D01*
X42299Y123343D02*
Y127220D01*
X39641Y129016D02*
Y134584D01*
X39150Y123343D02*
Y128525D01*
M02*
