G04*
G04 #@! TF.GenerationSoftware,Altium Limited,Altium Designer,21.0.8 (223)*
G04*
G04 Layer_Physical_Order=1*
G04 Layer_Color=255*
%FSLAX25Y25*%
%MOIN*%
G70*
G04*
G04 #@! TF.SameCoordinates,A92B238D-CFD9-4CD7-8B95-F340C1F2EFB7*
G04*
G04*
G04 #@! TF.FilePolarity,Positive*
G04*
G01*
G75*
%ADD14C,0.01968*%
%ADD15C,0.01575*%
%ADD16C,0.06693*%
%ADD17R,0.06693X0.06693*%
%ADD18C,0.07087*%
%ADD19C,0.02362*%
%ADD20C,0.01968*%
G36*
X68869Y200866D02*
X69412Y200641D01*
X69423Y200634D01*
X69271Y200134D01*
X61866D01*
Y191866D01*
X70134D01*
Y199271D01*
X70634Y199423D01*
X70641Y199412D01*
X70866Y198869D01*
X70981Y198293D01*
Y198000D01*
Y4000D01*
Y3706D01*
X70866Y3131D01*
X70641Y2588D01*
X70315Y2100D01*
X69900Y1685D01*
X69412Y1359D01*
X68869Y1134D01*
X68294Y1020D01*
X3706D01*
X3131Y1134D01*
X2588Y1359D01*
X2100Y1685D01*
X1685Y2100D01*
X1359Y2588D01*
X1134Y3131D01*
X1020Y3706D01*
Y4000D01*
Y198000D01*
Y198294D01*
X1134Y198869D01*
X1359Y199412D01*
X1366Y199423D01*
X1866Y199271D01*
Y191866D01*
X10134D01*
Y200134D01*
X2729D01*
X2577Y200634D01*
X2588Y200641D01*
X3131Y200866D01*
X3706Y200980D01*
X29987D01*
X29999Y200952D01*
X30003Y200910D01*
X30026Y200830D01*
X30031Y200747D01*
X30178Y200184D01*
X30216Y200105D01*
X30236Y200020D01*
X30716Y198963D01*
X30784Y198868D01*
X30836Y198763D01*
X31543Y197843D01*
X31631Y197766D01*
X31705Y197676D01*
X32602Y196940D01*
X32705Y196885D01*
X32798Y196814D01*
X33839Y196301D01*
X33952Y196271D01*
X34058Y196223D01*
X35188Y195960D01*
X35305Y195956D01*
X35420Y195933D01*
X36580D01*
X36695Y195956D01*
X36812Y195960D01*
X37942Y196223D01*
X38048Y196271D01*
X38161Y196301D01*
X39202Y196814D01*
X39295Y196885D01*
X39398Y196940D01*
X40295Y197676D01*
X40369Y197766D01*
X40457Y197843D01*
X41164Y198763D01*
X41216Y198868D01*
X41284Y198963D01*
X41764Y200020D01*
X41780Y200090D01*
X41814Y200153D01*
X41978Y200712D01*
X41991Y200857D01*
X42016Y200980D01*
X68293D01*
X68869Y200866D01*
D02*
G37*
%LPC*%
G36*
X23400Y199000D02*
Y197576D01*
X24824D01*
X24769Y197851D01*
X24331Y198507D01*
X23674Y198945D01*
X23400Y199000D01*
D02*
G37*
G36*
X22400D02*
X22126Y198945D01*
X21469Y198507D01*
X21031Y197851D01*
X20976Y197576D01*
X22400D01*
Y199000D01*
D02*
G37*
G36*
X24824Y196576D02*
X23400D01*
Y195153D01*
X23674Y195207D01*
X24331Y195646D01*
X24769Y196302D01*
X24824Y196576D01*
D02*
G37*
G36*
X22400D02*
X20976D01*
X21031Y196302D01*
X21469Y195646D01*
X22126Y195207D01*
X22400Y195153D01*
Y196576D01*
D02*
G37*
G36*
X36000Y194868D02*
X34870Y194719D01*
X33816Y194283D01*
X32911Y193589D01*
X32217Y192684D01*
X31781Y191630D01*
X31632Y190500D01*
X31781Y189369D01*
X32217Y188316D01*
X32911Y187411D01*
X33816Y186717D01*
X34870Y186281D01*
X36000Y186132D01*
X37130Y186281D01*
X38184Y186717D01*
X39089Y187411D01*
X39783Y188316D01*
X40219Y189369D01*
X40368Y190500D01*
X40219Y191630D01*
X39783Y192684D01*
X39089Y193589D01*
X38184Y194283D01*
X37130Y194719D01*
X36000Y194868D01*
D02*
G37*
G36*
X17500Y185925D02*
Y184301D01*
X19124D01*
X19055Y184652D01*
X18573Y185374D01*
X17851Y185856D01*
X17500Y185925D01*
D02*
G37*
G36*
X16500D02*
X16149Y185856D01*
X15428Y185374D01*
X14945Y184652D01*
X14876Y184301D01*
X16500D01*
Y185925D01*
D02*
G37*
G36*
X54704Y184645D02*
Y183021D01*
X56328D01*
X56258Y183372D01*
X55776Y184093D01*
X55055Y184575D01*
X54704Y184645D01*
D02*
G37*
G36*
X53704D02*
X53353Y184575D01*
X52631Y184093D01*
X52149Y183372D01*
X52079Y183021D01*
X53704D01*
Y184645D01*
D02*
G37*
G36*
X66000Y190170D02*
X64921Y190027D01*
X63915Y189611D01*
X63052Y188948D01*
X62389Y188085D01*
X61973Y187079D01*
X61831Y186000D01*
X61973Y184921D01*
X62389Y183915D01*
X63052Y183052D01*
X63915Y182389D01*
X64921Y181973D01*
X66000Y181831D01*
X67079Y181973D01*
X68085Y182389D01*
X68948Y183052D01*
X69611Y183915D01*
X70027Y184921D01*
X70170Y186000D01*
X70027Y187079D01*
X69611Y188085D01*
X68948Y188948D01*
X68085Y189611D01*
X67079Y190027D01*
X66000Y190170D01*
D02*
G37*
G36*
X6000D02*
X4921Y190027D01*
X3915Y189611D01*
X3052Y188948D01*
X2389Y188085D01*
X1973Y187079D01*
X1830Y186000D01*
X1973Y184921D01*
X2389Y183915D01*
X3052Y183052D01*
X3915Y182389D01*
X4921Y181973D01*
X6000Y181831D01*
X7079Y181973D01*
X8085Y182389D01*
X8948Y183052D01*
X9611Y183915D01*
X10028Y184921D01*
X10170Y186000D01*
X10028Y187079D01*
X9611Y188085D01*
X8948Y188948D01*
X8085Y189611D01*
X7079Y190027D01*
X6000Y190170D01*
D02*
G37*
G36*
X19124Y183301D02*
X17500D01*
Y181677D01*
X17851Y181746D01*
X18573Y182229D01*
X19055Y182950D01*
X19124Y183301D01*
D02*
G37*
G36*
X16500D02*
X14876D01*
X14945Y182950D01*
X15428Y182229D01*
X16149Y181746D01*
X16500Y181677D01*
Y183301D01*
D02*
G37*
G36*
X56328Y182021D02*
X54704D01*
Y180396D01*
X55055Y180466D01*
X55776Y180948D01*
X56258Y181670D01*
X56328Y182021D01*
D02*
G37*
G36*
X53704D02*
X52079D01*
X52149Y181670D01*
X52631Y180948D01*
X53353Y180466D01*
X53704Y180396D01*
Y182021D01*
D02*
G37*
G36*
X66000Y180169D02*
X64921Y180027D01*
X63915Y179611D01*
X63052Y178948D01*
X62389Y178085D01*
X61973Y177079D01*
X61831Y176000D01*
X61973Y174921D01*
X62389Y173915D01*
X63052Y173052D01*
X63915Y172389D01*
X64921Y171973D01*
X66000Y171830D01*
X67079Y171973D01*
X68085Y172389D01*
X68948Y173052D01*
X69611Y173915D01*
X70027Y174921D01*
X70170Y176000D01*
X70027Y177079D01*
X69611Y178085D01*
X68948Y178948D01*
X68085Y179611D01*
X67079Y180027D01*
X66000Y180169D01*
D02*
G37*
G36*
X6000D02*
X4921Y180027D01*
X3915Y179611D01*
X3052Y178948D01*
X2389Y178085D01*
X1973Y177079D01*
X1830Y176000D01*
X1973Y174921D01*
X2389Y173915D01*
X3052Y173052D01*
X3915Y172389D01*
X4921Y171973D01*
X6000Y171830D01*
X7079Y171973D01*
X8085Y172389D01*
X8948Y173052D01*
X9611Y173915D01*
X10028Y174921D01*
X10170Y176000D01*
X10028Y177079D01*
X9611Y178085D01*
X8948Y178948D01*
X8085Y179611D01*
X7079Y180027D01*
X6000Y180169D01*
D02*
G37*
G36*
X52378Y199828D02*
X51687Y199690D01*
X51101Y199299D01*
X50709Y198713D01*
X50572Y198022D01*
Y197204D01*
X23723Y170355D01*
X23331Y169769D01*
X23194Y169078D01*
X23331Y168386D01*
X23723Y167800D01*
X24309Y167409D01*
X25000Y167271D01*
X25691Y167409D01*
X26277Y167800D01*
X53656Y195179D01*
X54047Y195765D01*
X54185Y196456D01*
Y198022D01*
X54047Y198713D01*
X53656Y199299D01*
X53070Y199690D01*
X52378Y199828D01*
D02*
G37*
G36*
X37000Y167870D02*
Y166245D01*
X38624D01*
X38555Y166596D01*
X38072Y167318D01*
X37351Y167800D01*
X37000Y167870D01*
D02*
G37*
G36*
X36000D02*
X35649Y167800D01*
X34927Y167318D01*
X34445Y166596D01*
X34376Y166245D01*
X36000D01*
Y167870D01*
D02*
G37*
G36*
X38624Y165245D02*
X37000D01*
Y163621D01*
X37351Y163691D01*
X38072Y164173D01*
X38555Y164894D01*
X38624Y165245D01*
D02*
G37*
G36*
X36000D02*
X34376D01*
X34445Y164894D01*
X34927Y164173D01*
X35649Y163691D01*
X36000Y163621D01*
Y165245D01*
D02*
G37*
G36*
X66000Y170169D02*
X64921Y170027D01*
X63915Y169611D01*
X63052Y168948D01*
X62389Y168085D01*
X61973Y167079D01*
X61831Y166000D01*
X61973Y164921D01*
X62389Y163915D01*
X63052Y163052D01*
X63915Y162389D01*
X64921Y161973D01*
X66000Y161830D01*
X67079Y161973D01*
X68085Y162389D01*
X68948Y163052D01*
X69611Y163915D01*
X70027Y164921D01*
X70170Y166000D01*
X70027Y167079D01*
X69611Y168085D01*
X68948Y168948D01*
X68085Y169611D01*
X67079Y170027D01*
X66000Y170169D01*
D02*
G37*
G36*
X6000D02*
X4921Y170027D01*
X3915Y169611D01*
X3052Y168948D01*
X2389Y168085D01*
X1973Y167079D01*
X1830Y166000D01*
X1973Y164921D01*
X2389Y163915D01*
X3052Y163052D01*
X3915Y162389D01*
X4921Y161973D01*
X6000Y161830D01*
X7079Y161973D01*
X8085Y162389D01*
X8948Y163052D01*
X9611Y163915D01*
X10028Y164921D01*
X10170Y166000D01*
X10028Y167079D01*
X9611Y168085D01*
X8948Y168948D01*
X8085Y169611D01*
X7079Y170027D01*
X6000Y170169D01*
D02*
G37*
G36*
X66000Y160169D02*
X64921Y160027D01*
X63915Y159611D01*
X63052Y158948D01*
X62389Y158085D01*
X61973Y157079D01*
X61831Y156000D01*
X61973Y154921D01*
X62389Y153915D01*
X63052Y153052D01*
X63915Y152389D01*
X64921Y151973D01*
X66000Y151830D01*
X67079Y151973D01*
X68085Y152389D01*
X68948Y153052D01*
X69611Y153915D01*
X70027Y154921D01*
X70170Y156000D01*
X70027Y157079D01*
X69611Y158085D01*
X68948Y158948D01*
X68085Y159611D01*
X67079Y160027D01*
X66000Y160169D01*
D02*
G37*
G36*
X6000D02*
X4921Y160027D01*
X3915Y159611D01*
X3052Y158948D01*
X2389Y158085D01*
X1973Y157079D01*
X1830Y156000D01*
X1973Y154921D01*
X2389Y153915D01*
X3052Y153052D01*
X3915Y152389D01*
X4921Y151973D01*
X6000Y151830D01*
X7079Y151973D01*
X8085Y152389D01*
X8948Y153052D01*
X9611Y153915D01*
X10028Y154921D01*
X10170Y156000D01*
X10028Y157079D01*
X9611Y158085D01*
X8948Y158948D01*
X8085Y159611D01*
X7079Y160027D01*
X6000Y160169D01*
D02*
G37*
G36*
X66000Y150170D02*
X64921Y150027D01*
X63915Y149611D01*
X63052Y148948D01*
X62389Y148085D01*
X61973Y147079D01*
X61831Y146000D01*
X61973Y144921D01*
X62389Y143915D01*
X63052Y143052D01*
X63915Y142389D01*
X64921Y141973D01*
X66000Y141831D01*
X67079Y141973D01*
X68085Y142389D01*
X68948Y143052D01*
X69611Y143915D01*
X70027Y144921D01*
X70170Y146000D01*
X70027Y147079D01*
X69611Y148085D01*
X68948Y148948D01*
X68085Y149611D01*
X67079Y150027D01*
X66000Y150170D01*
D02*
G37*
G36*
X6000D02*
X4921Y150027D01*
X3915Y149611D01*
X3052Y148948D01*
X2389Y148085D01*
X1973Y147079D01*
X1830Y146000D01*
X1973Y144921D01*
X2389Y143915D01*
X3052Y143052D01*
X3915Y142389D01*
X4921Y141973D01*
X6000Y141831D01*
X7079Y141973D01*
X8085Y142389D01*
X8948Y143052D01*
X9611Y143915D01*
X10028Y144921D01*
X10170Y146000D01*
X10028Y147079D01*
X9611Y148085D01*
X8948Y148948D01*
X8085Y149611D01*
X7079Y150027D01*
X6000Y150170D01*
D02*
G37*
G36*
X56755Y142824D02*
Y141400D01*
X58178D01*
X58124Y141674D01*
X57685Y142331D01*
X57029Y142769D01*
X56755Y142824D01*
D02*
G37*
G36*
X55755D02*
X55480Y142769D01*
X54824Y142331D01*
X54386Y141674D01*
X54331Y141400D01*
X55755D01*
Y142824D01*
D02*
G37*
G36*
X58178Y140400D02*
X56755D01*
Y138976D01*
X57029Y139031D01*
X57685Y139469D01*
X58124Y140126D01*
X58178Y140400D01*
D02*
G37*
G36*
X55755D02*
X54331D01*
X54386Y140126D01*
X54824Y139469D01*
X55480Y139031D01*
X55755Y138976D01*
Y140400D01*
D02*
G37*
G36*
X35000Y139824D02*
Y138200D01*
X36624D01*
X36555Y138551D01*
X36072Y139272D01*
X35351Y139754D01*
X35000Y139824D01*
D02*
G37*
G36*
X34000D02*
X33649Y139754D01*
X32928Y139272D01*
X32445Y138551D01*
X32376Y138200D01*
X34000D01*
Y139824D01*
D02*
G37*
G36*
X36624Y137200D02*
X35000D01*
Y135576D01*
X35351Y135645D01*
X36072Y136127D01*
X36555Y136849D01*
X36624Y137200D01*
D02*
G37*
G36*
X34000D02*
X32376D01*
X32445Y136849D01*
X32928Y136127D01*
X33649Y135645D01*
X34000Y135576D01*
Y137200D01*
D02*
G37*
G36*
X66000Y140170D02*
X64921Y140027D01*
X63915Y139611D01*
X63052Y138948D01*
X62389Y138085D01*
X61973Y137079D01*
X61831Y136000D01*
X61973Y134921D01*
X62088Y134643D01*
X50367Y122921D01*
X49975Y122335D01*
X49838Y121644D01*
Y116757D01*
X49338Y116422D01*
X48888Y116511D01*
X48717Y116477D01*
X48598Y116501D01*
X44995D01*
X44304Y116363D01*
X43718Y115972D01*
X41053Y113306D01*
X30900D01*
X30209Y113169D01*
X29623Y112777D01*
X29231Y112191D01*
X29094Y111500D01*
X29231Y110809D01*
X29623Y110223D01*
X30209Y109831D01*
X30900Y109694D01*
X41801D01*
X42492Y109831D01*
X43078Y110223D01*
X45743Y112888D01*
X46792D01*
Y105682D01*
X46930Y104991D01*
X47321Y104405D01*
X47907Y104013D01*
X48598Y103876D01*
X49290Y104013D01*
X49404Y104089D01*
X49860Y103793D01*
X49975Y103213D01*
X50367Y102627D01*
X50422Y102571D01*
X50486Y102315D01*
Y102089D01*
X50419Y101956D01*
X50042Y101391D01*
X49904Y100700D01*
X50042Y100009D01*
X50433Y99423D01*
X50432Y98934D01*
X50079Y98406D01*
X49942Y97714D01*
X50079Y97023D01*
X50471Y96437D01*
X51057Y96046D01*
X51748Y95908D01*
X57714D01*
X58406Y96046D01*
X58992Y96437D01*
X64642Y102088D01*
X64921Y101973D01*
X66000Y101830D01*
X67079Y101973D01*
X68085Y102389D01*
X68948Y103052D01*
X69611Y103915D01*
X70027Y104921D01*
X70170Y106000D01*
X70027Y107079D01*
X69611Y108085D01*
X68948Y108948D01*
X68085Y109611D01*
X67079Y110027D01*
X66000Y110169D01*
X64921Y110027D01*
X63915Y109611D01*
X63188Y109053D01*
X62688Y109243D01*
Y110134D01*
X64642Y112088D01*
X64921Y111973D01*
X66000Y111830D01*
X67079Y111973D01*
X68085Y112389D01*
X68948Y113052D01*
X69611Y113915D01*
X70027Y114921D01*
X70170Y116000D01*
X70027Y117079D01*
X69611Y118085D01*
X68948Y118948D01*
X68085Y119611D01*
X67079Y120027D01*
X66000Y120169D01*
X64921Y120027D01*
X63915Y119611D01*
X63052Y118948D01*
X62389Y118085D01*
X61973Y117079D01*
X61831Y116000D01*
X61973Y114921D01*
X62088Y114643D01*
X59605Y112159D01*
X59213Y111573D01*
X59075Y110882D01*
Y107784D01*
X54049Y102757D01*
X53806Y102790D01*
X53733Y102850D01*
X53460Y103325D01*
X53554Y103800D01*
X53451Y104323D01*
Y111348D01*
X53951Y111683D01*
X54400Y111594D01*
X55091Y111731D01*
X55677Y112123D01*
X56069Y112709D01*
X56117Y112953D01*
X65112Y121947D01*
X66000Y121830D01*
X67079Y121973D01*
X68085Y122389D01*
X68948Y123052D01*
X69611Y123915D01*
X70027Y124921D01*
X70170Y126000D01*
X70027Y127079D01*
X69611Y128085D01*
X68948Y128948D01*
X68085Y129611D01*
X67079Y130027D01*
X66000Y130169D01*
X64921Y130027D01*
X63915Y129611D01*
X63052Y128948D01*
X62389Y128085D01*
X61973Y127079D01*
X61831Y126000D01*
X61973Y124921D01*
X62389Y123915D01*
X62454Y123831D01*
X53951Y115328D01*
X53451Y115535D01*
Y120896D01*
X64642Y132088D01*
X64921Y131973D01*
X66000Y131831D01*
X67079Y131973D01*
X68085Y132389D01*
X68948Y133052D01*
X69611Y133915D01*
X70027Y134921D01*
X70170Y136000D01*
X70027Y137079D01*
X69611Y138085D01*
X68948Y138948D01*
X68085Y139611D01*
X67079Y140027D01*
X66000Y140170D01*
D02*
G37*
G36*
X6000D02*
X4921Y140027D01*
X3915Y139611D01*
X3052Y138948D01*
X2389Y138085D01*
X1973Y137079D01*
X1830Y136000D01*
X1973Y134921D01*
X2389Y133915D01*
X3052Y133052D01*
X3915Y132389D01*
X4921Y131973D01*
X6000Y131831D01*
X7079Y131973D01*
X7778Y132262D01*
X12369Y127671D01*
X12252Y127081D01*
X11871Y126826D01*
X11617Y126445D01*
X11026Y126328D01*
X10981Y126373D01*
X10395Y126765D01*
X10060Y126832D01*
X10028Y127079D01*
X9611Y128085D01*
X8948Y128948D01*
X8085Y129611D01*
X7079Y130027D01*
X6000Y130169D01*
X4921Y130027D01*
X3915Y129611D01*
X3052Y128948D01*
X2389Y128085D01*
X1973Y127079D01*
X1830Y126000D01*
X1973Y124921D01*
X2389Y123915D01*
X3052Y123052D01*
X3915Y122389D01*
X4921Y121973D01*
X6000Y121830D01*
X7079Y121973D01*
X8085Y122389D01*
X8948Y123052D01*
X9179Y123067D01*
X9774Y122471D01*
X9629Y121993D01*
X9509Y121969D01*
X8923Y121577D01*
X8531Y120991D01*
X8394Y120300D01*
X8463Y119951D01*
X8242Y119752D01*
X8015Y119640D01*
X7079Y120027D01*
X6000Y120169D01*
X4921Y120027D01*
X3915Y119611D01*
X3052Y118948D01*
X2389Y118085D01*
X1973Y117079D01*
X1830Y116000D01*
X1973Y114921D01*
X2389Y113915D01*
X3052Y113052D01*
X3915Y112389D01*
X4921Y111973D01*
X6000Y111830D01*
X7079Y111973D01*
X8085Y112389D01*
X8812Y112947D01*
X9312Y112757D01*
Y109243D01*
X8812Y109053D01*
X8085Y109611D01*
X7079Y110027D01*
X6000Y110169D01*
X4921Y110027D01*
X3915Y109611D01*
X3052Y108948D01*
X2389Y108085D01*
X1973Y107079D01*
X1830Y106000D01*
X1973Y104921D01*
X2389Y103915D01*
X3052Y103052D01*
X3915Y102389D01*
X4921Y101973D01*
X6000Y101830D01*
X7079Y101973D01*
X8085Y102389D01*
X8812Y102947D01*
X9312Y102757D01*
Y101866D01*
X7358Y99912D01*
X7079Y100027D01*
X6000Y100170D01*
X4921Y100027D01*
X3915Y99611D01*
X3052Y98948D01*
X2389Y98085D01*
X1973Y97079D01*
X1830Y96000D01*
X1973Y94921D01*
X2389Y93915D01*
X3052Y93052D01*
X3915Y92389D01*
X4921Y91973D01*
X6000Y91830D01*
X7079Y91973D01*
X8085Y92389D01*
X8948Y93052D01*
X9611Y93915D01*
X10028Y94921D01*
X10170Y96000D01*
X10028Y97079D01*
X9912Y97358D01*
X12395Y99841D01*
X12787Y100427D01*
X12924Y101118D01*
Y104868D01*
X13386Y105059D01*
X15823Y102623D01*
X16409Y102231D01*
X17100Y102094D01*
X17791Y102231D01*
X18377Y102623D01*
X18769Y103209D01*
X18906Y103900D01*
X18769Y104591D01*
X18612Y104825D01*
X18609Y104918D01*
X18785Y105461D01*
X19177Y105723D01*
X19569Y106309D01*
X19706Y107000D01*
Y108303D01*
X19582Y108930D01*
X20091Y109031D01*
X20677Y109423D01*
X21069Y110009D01*
X21206Y110700D01*
Y123195D01*
X21069Y123886D01*
X20677Y124472D01*
X10051Y135099D01*
X10170Y136000D01*
X10028Y137079D01*
X9611Y138085D01*
X8948Y138948D01*
X8085Y139611D01*
X7079Y140027D01*
X6000Y140170D01*
D02*
G37*
G36*
X36500Y121526D02*
Y120102D01*
X37924D01*
X37869Y120377D01*
X37431Y121033D01*
X36774Y121472D01*
X36500Y121526D01*
D02*
G37*
G36*
X35500D02*
X35226Y121472D01*
X34569Y121033D01*
X34131Y120377D01*
X34076Y120102D01*
X35500D01*
Y121526D01*
D02*
G37*
G36*
X37924Y119102D02*
X36500D01*
Y117679D01*
X36774Y117733D01*
X37431Y118172D01*
X37869Y118828D01*
X37924Y119102D01*
D02*
G37*
G36*
X35500D02*
X34076D01*
X34131Y118828D01*
X34569Y118172D01*
X35226Y117733D01*
X35500Y117679D01*
Y119102D01*
D02*
G37*
G36*
X36500Y108342D02*
Y106718D01*
X38124D01*
X38055Y107069D01*
X37573Y107790D01*
X36851Y108272D01*
X36500Y108342D01*
D02*
G37*
G36*
X35500D02*
X35149Y108272D01*
X34427Y107790D01*
X33945Y107069D01*
X33876Y106718D01*
X35500D01*
Y108342D01*
D02*
G37*
G36*
X38124Y105718D02*
X36500D01*
Y104093D01*
X36851Y104163D01*
X37573Y104645D01*
X38055Y105367D01*
X38124Y105718D01*
D02*
G37*
G36*
X35500D02*
X33876D01*
X33945Y105367D01*
X34427Y104645D01*
X35149Y104163D01*
X35500Y104093D01*
Y105718D01*
D02*
G37*
G36*
X66000Y100170D02*
X64921Y100027D01*
X63915Y99611D01*
X63052Y98948D01*
X62389Y98085D01*
X61973Y97079D01*
X61831Y96000D01*
X61973Y94921D01*
X62389Y93915D01*
X63052Y93052D01*
X63915Y92389D01*
X64921Y91973D01*
X66000Y91830D01*
X67079Y91973D01*
X68085Y92389D01*
X68948Y93052D01*
X69611Y93915D01*
X70027Y94921D01*
X70170Y96000D01*
X70027Y97079D01*
X69611Y98085D01*
X68948Y98948D01*
X68085Y99611D01*
X67079Y100027D01*
X66000Y100170D01*
D02*
G37*
G36*
X17500Y99606D02*
X16809Y99469D01*
X16223Y99077D01*
X15831Y98491D01*
X15782Y98247D01*
X7422Y89886D01*
X7079Y90027D01*
X6000Y90170D01*
X4921Y90027D01*
X3915Y89611D01*
X3052Y88948D01*
X2389Y88085D01*
X1973Y87079D01*
X1830Y86000D01*
X1973Y84921D01*
X2389Y83915D01*
X3052Y83052D01*
X3915Y82389D01*
X4921Y81973D01*
X6000Y81831D01*
X7079Y81973D01*
X8085Y82389D01*
X8948Y83052D01*
X9611Y83915D01*
X10028Y84921D01*
X10170Y86000D01*
X10028Y87079D01*
X9772Y87695D01*
X18243Y96166D01*
X18777Y96523D01*
X19169Y97109D01*
X19306Y97800D01*
X19169Y98491D01*
X18777Y99077D01*
X18191Y99469D01*
X17500Y99606D01*
D02*
G37*
G36*
X36500Y91273D02*
Y89649D01*
X38124D01*
X38055Y90000D01*
X37573Y90722D01*
X36851Y91204D01*
X36500Y91273D01*
D02*
G37*
G36*
X35500D02*
X35149Y91204D01*
X34427Y90722D01*
X33945Y90000D01*
X33876Y89649D01*
X35500D01*
Y91273D01*
D02*
G37*
G36*
X38124Y88649D02*
X36500D01*
Y87025D01*
X36851Y87094D01*
X37573Y87577D01*
X38055Y88298D01*
X38124Y88649D01*
D02*
G37*
G36*
X35500D02*
X33876D01*
X33945Y88298D01*
X34427Y87577D01*
X35149Y87094D01*
X35500Y87025D01*
Y88649D01*
D02*
G37*
G36*
X66000Y90170D02*
X64921Y90027D01*
X63915Y89611D01*
X63052Y88948D01*
X62389Y88085D01*
X61973Y87079D01*
X61831Y86000D01*
X61973Y84921D01*
X62389Y83915D01*
X63052Y83052D01*
X63915Y82389D01*
X64921Y81973D01*
X66000Y81831D01*
X67079Y81973D01*
X68085Y82389D01*
X68948Y83052D01*
X69611Y83915D01*
X70027Y84921D01*
X70170Y86000D01*
X70027Y87079D01*
X69611Y88085D01*
X68948Y88948D01*
X68085Y89611D01*
X67079Y90027D01*
X66000Y90170D01*
D02*
G37*
G36*
X51453Y92811D02*
X50761Y92674D01*
X50175Y92282D01*
X49784Y91696D01*
X49646Y91005D01*
X49784Y90314D01*
X50175Y89727D01*
X59075Y80827D01*
Y51118D01*
X59213Y50427D01*
X59605Y49841D01*
X62088Y47357D01*
X61973Y47079D01*
X61831Y46000D01*
X61973Y44921D01*
X62389Y43915D01*
X63052Y43052D01*
X63915Y42389D01*
X64921Y41973D01*
X66000Y41831D01*
X67079Y41973D01*
X68085Y42389D01*
X68948Y43052D01*
X69611Y43915D01*
X70027Y44921D01*
X70170Y46000D01*
X70027Y47079D01*
X69611Y48085D01*
X68948Y48948D01*
X68085Y49611D01*
X67079Y50027D01*
X66000Y50169D01*
X64921Y50027D01*
X64642Y49912D01*
X62688Y51866D01*
Y52757D01*
X63188Y52947D01*
X63915Y52389D01*
X64921Y51973D01*
X66000Y51831D01*
X67079Y51973D01*
X68085Y52389D01*
X68948Y53052D01*
X69611Y53915D01*
X70027Y54921D01*
X70170Y56000D01*
X70027Y57079D01*
X69611Y58085D01*
X68948Y58948D01*
X68085Y59611D01*
X67079Y60027D01*
X66000Y60170D01*
X64921Y60027D01*
X63915Y59611D01*
X63188Y59053D01*
X62688Y59243D01*
Y62757D01*
X63188Y62947D01*
X63915Y62389D01*
X64921Y61973D01*
X66000Y61831D01*
X67079Y61973D01*
X68085Y62389D01*
X68948Y63052D01*
X69611Y63915D01*
X70027Y64921D01*
X70170Y66000D01*
X70027Y67079D01*
X69611Y68085D01*
X68948Y68948D01*
X68085Y69611D01*
X67079Y70027D01*
X66000Y70170D01*
X64921Y70027D01*
X63915Y69611D01*
X63188Y69053D01*
X62688Y69243D01*
Y72757D01*
X63188Y72947D01*
X63915Y72389D01*
X64921Y71973D01*
X66000Y71830D01*
X67079Y71973D01*
X68085Y72389D01*
X68948Y73052D01*
X69611Y73915D01*
X70027Y74921D01*
X70170Y76000D01*
X70027Y77079D01*
X69611Y78085D01*
X68948Y78948D01*
X68085Y79611D01*
X67079Y80027D01*
X66000Y80169D01*
X64921Y80027D01*
X63915Y79611D01*
X63188Y79053D01*
X62688Y79243D01*
Y81576D01*
X62551Y82267D01*
X62159Y82853D01*
X52730Y92282D01*
X52144Y92674D01*
X51453Y92811D01*
D02*
G37*
G36*
X56223Y67024D02*
Y65600D01*
X57646D01*
X57592Y65874D01*
X57153Y66531D01*
X56497Y66969D01*
X56223Y67024D01*
D02*
G37*
G36*
X55223D02*
X54949Y66969D01*
X54292Y66531D01*
X53854Y65874D01*
X53799Y65600D01*
X55223D01*
Y67024D01*
D02*
G37*
G36*
X57646Y64600D02*
X56223D01*
Y63176D01*
X56497Y63231D01*
X57153Y63669D01*
X57592Y64326D01*
X57646Y64600D01*
D02*
G37*
G36*
X55223D02*
X53799D01*
X53854Y64326D01*
X54292Y63669D01*
X54949Y63231D01*
X55223Y63176D01*
Y64600D01*
D02*
G37*
G36*
X6000Y70170D02*
X4921Y70027D01*
X3915Y69611D01*
X3052Y68948D01*
X2389Y68085D01*
X1973Y67079D01*
X1830Y66000D01*
X1973Y64921D01*
X2389Y63915D01*
X3052Y63052D01*
X3915Y62389D01*
X4921Y61973D01*
X6000Y61831D01*
X7079Y61973D01*
X8085Y62389D01*
X8948Y63052D01*
X9611Y63915D01*
X10028Y64921D01*
X10170Y66000D01*
X10028Y67079D01*
X9611Y68085D01*
X8948Y68948D01*
X8085Y69611D01*
X7079Y70027D01*
X6000Y70170D01*
D02*
G37*
G36*
Y60170D02*
X4921Y60027D01*
X3915Y59611D01*
X3052Y58948D01*
X2389Y58085D01*
X1973Y57079D01*
X1830Y56000D01*
X1973Y54921D01*
X2389Y53915D01*
X3052Y53052D01*
X3915Y52389D01*
X4921Y51973D01*
X6000Y51831D01*
X7079Y51973D01*
X8085Y52389D01*
X8948Y53052D01*
X9611Y53915D01*
X10028Y54921D01*
X10170Y56000D01*
X10028Y57079D01*
X9611Y58085D01*
X8948Y58948D01*
X8085Y59611D01*
X7079Y60027D01*
X6000Y60170D01*
D02*
G37*
G36*
X56900Y48124D02*
Y46500D01*
X58524D01*
X58455Y46851D01*
X57973Y47572D01*
X57251Y48055D01*
X56900Y48124D01*
D02*
G37*
G36*
X55900D02*
X55549Y48055D01*
X54827Y47572D01*
X54346Y46851D01*
X54276Y46500D01*
X55900D01*
Y48124D01*
D02*
G37*
G36*
X58524Y45500D02*
X56900D01*
Y43876D01*
X57251Y43945D01*
X57973Y44427D01*
X58455Y45149D01*
X58524Y45500D01*
D02*
G37*
G36*
X55900D02*
X54276D01*
X54346Y45149D01*
X54827Y44427D01*
X55549Y43945D01*
X55900Y43876D01*
Y45500D01*
D02*
G37*
G36*
X6000Y50169D02*
X4921Y50027D01*
X3915Y49611D01*
X3052Y48948D01*
X2389Y48085D01*
X1973Y47079D01*
X1830Y46000D01*
X1973Y44921D01*
X2389Y43915D01*
X3052Y43052D01*
X3915Y42389D01*
X4921Y41973D01*
X6000Y41831D01*
X7079Y41973D01*
X8085Y42389D01*
X8948Y43052D01*
X9611Y43915D01*
X10028Y44921D01*
X10170Y46000D01*
X10028Y47079D01*
X9611Y48085D01*
X8948Y48948D01*
X8085Y49611D01*
X7079Y50027D01*
X6000Y50169D01*
D02*
G37*
G36*
X17500Y93206D02*
X16809Y93069D01*
X16223Y92677D01*
X15831Y92091D01*
X15694Y91400D01*
X15831Y90709D01*
X16223Y90123D01*
X20943Y85403D01*
X20725Y84965D01*
X20700Y84939D01*
X20432D01*
X19741Y84801D01*
X19155Y84410D01*
X12552Y77806D01*
X9726D01*
X9611Y78085D01*
X8948Y78948D01*
X8085Y79611D01*
X7079Y80027D01*
X6000Y80169D01*
X4921Y80027D01*
X3915Y79611D01*
X3052Y78948D01*
X2389Y78085D01*
X1973Y77079D01*
X1830Y76000D01*
X1973Y74921D01*
X2389Y73915D01*
X3052Y73052D01*
X3915Y72389D01*
X4921Y71973D01*
X6000Y71830D01*
X7079Y71973D01*
X8085Y72389D01*
X8948Y73052D01*
X9611Y73915D01*
X9726Y74194D01*
X13300D01*
X13991Y74331D01*
X14577Y74723D01*
X21297Y81442D01*
X21403Y81463D01*
X21989Y81855D01*
X22294Y82311D01*
X22794Y82159D01*
Y55348D01*
X7358Y39912D01*
X7079Y40027D01*
X6000Y40170D01*
X4921Y40027D01*
X3915Y39611D01*
X3052Y38948D01*
X2389Y38085D01*
X1973Y37079D01*
X1830Y36000D01*
X1973Y34921D01*
X2389Y33915D01*
X3052Y33052D01*
X3915Y32389D01*
X4921Y31973D01*
X6000Y31830D01*
X7079Y31973D01*
X8085Y32389D01*
X8948Y33052D01*
X9611Y33915D01*
X10028Y34921D01*
X10170Y36000D01*
X10028Y37079D01*
X9912Y37358D01*
X25877Y53323D01*
X26269Y53909D01*
X26406Y54600D01*
Y84300D01*
X26269Y84991D01*
X25877Y85577D01*
X18777Y92677D01*
X18191Y93069D01*
X17500Y93206D01*
D02*
G37*
G36*
X66000Y40170D02*
X64921Y40027D01*
X63915Y39611D01*
X63052Y38948D01*
X62389Y38085D01*
X61973Y37079D01*
X61831Y36000D01*
X61973Y34921D01*
X62389Y33915D01*
X63052Y33052D01*
X63915Y32389D01*
X64921Y31973D01*
X66000Y31830D01*
X67079Y31973D01*
X68085Y32389D01*
X68948Y33052D01*
X69611Y33915D01*
X70027Y34921D01*
X70170Y36000D01*
X70027Y37079D01*
X69611Y38085D01*
X68948Y38948D01*
X68085Y39611D01*
X67079Y40027D01*
X66000Y40170D01*
D02*
G37*
G36*
X48900Y29954D02*
Y28330D01*
X50524D01*
X50455Y28681D01*
X49973Y29402D01*
X49251Y29884D01*
X48900Y29954D01*
D02*
G37*
G36*
X47900D02*
X47549Y29884D01*
X46828Y29402D01*
X46345Y28681D01*
X46276Y28330D01*
X47900D01*
Y29954D01*
D02*
G37*
G36*
X50524Y27330D02*
X48900D01*
Y25706D01*
X49251Y25775D01*
X49973Y26257D01*
X50455Y26979D01*
X50524Y27330D01*
D02*
G37*
G36*
X47900D02*
X46276D01*
X46345Y26979D01*
X46828Y26257D01*
X47549Y25775D01*
X47900Y25706D01*
Y27330D01*
D02*
G37*
G36*
X66000Y30169D02*
X64921Y30027D01*
X63915Y29611D01*
X63052Y28948D01*
X62389Y28085D01*
X61973Y27079D01*
X61831Y26000D01*
X61973Y24921D01*
X62389Y23915D01*
X63052Y23052D01*
X63915Y22389D01*
X64921Y21973D01*
X66000Y21831D01*
X67079Y21973D01*
X68085Y22389D01*
X68948Y23052D01*
X69611Y23915D01*
X70027Y24921D01*
X70170Y26000D01*
X70027Y27079D01*
X69611Y28085D01*
X68948Y28948D01*
X68085Y29611D01*
X67079Y30027D01*
X66000Y30169D01*
D02*
G37*
G36*
X6000D02*
X4921Y30027D01*
X3915Y29611D01*
X3052Y28948D01*
X2389Y28085D01*
X1973Y27079D01*
X1830Y26000D01*
X1973Y24921D01*
X2389Y23915D01*
X3052Y23052D01*
X3915Y22389D01*
X4921Y21973D01*
X6000Y21831D01*
X7079Y21973D01*
X8085Y22389D01*
X8948Y23052D01*
X9611Y23915D01*
X10028Y24921D01*
X10170Y26000D01*
X10028Y27079D01*
X9611Y28085D01*
X8948Y28948D01*
X8085Y29611D01*
X7079Y30027D01*
X6000Y30169D01*
D02*
G37*
G36*
X66000Y20169D02*
X64921Y20027D01*
X63915Y19611D01*
X63052Y18948D01*
X62389Y18085D01*
X61973Y17079D01*
X61831Y16000D01*
X61973Y14921D01*
X62389Y13915D01*
X63052Y13052D01*
X63915Y12389D01*
X64921Y11972D01*
X66000Y11830D01*
X67079Y11972D01*
X68085Y12389D01*
X68948Y13052D01*
X69611Y13915D01*
X70027Y14921D01*
X70170Y16000D01*
X70027Y17079D01*
X69611Y18085D01*
X68948Y18948D01*
X68085Y19611D01*
X67079Y20027D01*
X66000Y20169D01*
D02*
G37*
G36*
X6000D02*
X4921Y20027D01*
X3915Y19611D01*
X3052Y18948D01*
X2389Y18085D01*
X1973Y17079D01*
X1830Y16000D01*
X1973Y14921D01*
X2389Y13915D01*
X3052Y13052D01*
X3915Y12389D01*
X4921Y11972D01*
X6000Y11830D01*
X7079Y11972D01*
X8085Y12389D01*
X8948Y13052D01*
X9611Y13915D01*
X10028Y14921D01*
X10170Y16000D01*
X10028Y17079D01*
X9611Y18085D01*
X8948Y18948D01*
X8085Y19611D01*
X7079Y20027D01*
X6000Y20169D01*
D02*
G37*
G36*
X48400Y16368D02*
X47269Y16219D01*
X46216Y15783D01*
X45311Y15089D01*
X44617Y14184D01*
X44181Y13130D01*
X44032Y12000D01*
X44181Y10870D01*
X44617Y9816D01*
X45311Y8911D01*
X46216Y8217D01*
X47269Y7781D01*
X48400Y7632D01*
X49531Y7781D01*
X50584Y8217D01*
X51489Y8911D01*
X52183Y9816D01*
X52619Y10870D01*
X52768Y12000D01*
X52619Y13130D01*
X52183Y14184D01*
X51489Y15089D01*
X50584Y15783D01*
X49531Y16219D01*
X48400Y16368D01*
D02*
G37*
G36*
X36100D02*
X34969Y16219D01*
X33916Y15783D01*
X33011Y15089D01*
X32317Y14184D01*
X31881Y13130D01*
X31732Y12000D01*
X31881Y10870D01*
X32317Y9816D01*
X33011Y8911D01*
X33916Y8217D01*
X34969Y7781D01*
X36100Y7632D01*
X37231Y7781D01*
X38284Y8217D01*
X39189Y8911D01*
X39883Y9816D01*
X40319Y10870D01*
X40468Y12000D01*
X40319Y13130D01*
X39883Y14184D01*
X39189Y15089D01*
X38284Y15783D01*
X37231Y16219D01*
X36100Y16368D01*
D02*
G37*
G36*
X23800D02*
X22670Y16219D01*
X21616Y15783D01*
X20711Y15089D01*
X20017Y14184D01*
X19581Y13130D01*
X19432Y12000D01*
X19581Y10870D01*
X20017Y9816D01*
X20711Y8911D01*
X21616Y8217D01*
X22670Y7781D01*
X23800Y7632D01*
X24930Y7781D01*
X25984Y8217D01*
X26889Y8911D01*
X27583Y9816D01*
X28019Y10870D01*
X28168Y12000D01*
X28019Y13130D01*
X27583Y14184D01*
X26889Y15089D01*
X25984Y15783D01*
X24930Y16219D01*
X23800Y16368D01*
D02*
G37*
G36*
X6500Y10318D02*
Y6500D01*
X10318D01*
X10235Y7135D01*
X9797Y8192D01*
X9100Y9100D01*
X8192Y9797D01*
X7135Y10235D01*
X6500Y10318D01*
D02*
G37*
G36*
X5500D02*
X4865Y10235D01*
X3808Y9797D01*
X2900Y9100D01*
X2203Y8192D01*
X1765Y7135D01*
X1682Y6500D01*
X5500D01*
Y10318D01*
D02*
G37*
G36*
X59302Y6217D02*
Y4593D01*
X60927D01*
X60857Y4944D01*
X60375Y5666D01*
X59653Y6148D01*
X59302Y6217D01*
D02*
G37*
G36*
X58302D02*
X57951Y6148D01*
X57230Y5666D01*
X56748Y4944D01*
X56678Y4593D01*
X58302D01*
Y6217D01*
D02*
G37*
G36*
X60927Y3593D02*
X59302D01*
Y1969D01*
X59653Y2039D01*
X60375Y2520D01*
X60857Y3242D01*
X60927Y3593D01*
D02*
G37*
G36*
X58302D02*
X56678D01*
X56748Y3242D01*
X57230Y2520D01*
X57951Y2039D01*
X58302Y1969D01*
Y3593D01*
D02*
G37*
G36*
X66000Y10170D02*
X64921Y10028D01*
X63915Y9611D01*
X63052Y8948D01*
X62389Y8085D01*
X61973Y7079D01*
X61831Y6000D01*
X61973Y4921D01*
X62389Y3915D01*
X63052Y3052D01*
X63915Y2389D01*
X64921Y1973D01*
X66000Y1830D01*
X67079Y1973D01*
X68085Y2389D01*
X68948Y3052D01*
X69611Y3915D01*
X70027Y4921D01*
X70170Y6000D01*
X70027Y7079D01*
X69611Y8085D01*
X68948Y8948D01*
X68085Y9611D01*
X67079Y10028D01*
X66000Y10170D01*
D02*
G37*
G36*
X10318Y5500D02*
X6500D01*
Y1682D01*
X7135Y1765D01*
X8192Y2203D01*
X9100Y2900D01*
X9797Y3808D01*
X10235Y4865D01*
X10318Y5500D01*
D02*
G37*
G36*
X5500D02*
X1682D01*
X1765Y4865D01*
X2203Y3808D01*
X2900Y2900D01*
X3808Y2203D01*
X4865Y1765D01*
X5500Y1682D01*
Y5500D01*
D02*
G37*
%LPD*%
D14*
X58802Y4093D02*
Y47198D01*
X55900Y50100D02*
X58802Y47198D01*
X22244Y196420D02*
X22900Y197076D01*
X22244Y167556D02*
Y196420D01*
Y167556D02*
X48900Y140900D01*
X25000Y169078D02*
X52378Y196456D01*
Y198022D01*
X44995Y114694D02*
X48598D01*
X41801Y111500D02*
X44995Y114694D01*
X30900Y111500D02*
X41801D01*
X51644Y103904D02*
Y121644D01*
X51748Y97714D02*
X57714D01*
X66000Y106000D01*
X51644Y103904D02*
X51748Y103800D01*
X60882Y107036D02*
Y110882D01*
X54546Y100700D02*
X60882Y107036D01*
X51710Y100700D02*
X54546D01*
X60882Y51118D02*
Y81576D01*
X51453Y91005D02*
X60882Y81576D01*
X55900Y65277D02*
Y72400D01*
X55723Y65100D02*
X55900Y65277D01*
X17900Y107000D02*
Y108303D01*
X16644Y109558D02*
X17900Y108303D01*
X16644Y109558D02*
Y122053D01*
X6000Y126000D02*
X6904Y125096D01*
X9704D01*
X13888Y120912D01*
Y107112D02*
Y120912D01*
X55900Y50100D02*
Y65100D01*
X26944Y101356D02*
X55900Y72400D01*
X26944Y101356D02*
Y117791D01*
X29136Y119983D01*
X6000Y36000D02*
X24600Y54600D01*
X17500Y91400D02*
X24600Y84300D01*
Y54600D02*
Y84300D01*
X13300Y76000D02*
X20432Y83132D01*
X20712D01*
X6000Y76000D02*
X13300D01*
X35925Y119678D02*
X36000Y119602D01*
X56255Y139857D01*
X31576Y119983D02*
X31881Y119678D01*
X29136Y119983D02*
X31576D01*
X31881Y119678D02*
X35925D01*
X56255Y139857D02*
Y140900D01*
X19400Y110700D02*
Y123195D01*
X13149Y125549D02*
X16644Y122053D01*
X13888Y107112D02*
X17100Y103900D01*
X10200Y120300D02*
X11118Y119382D01*
X6595Y136000D02*
X19400Y123195D01*
X11118Y101118D02*
Y119382D01*
X60882Y51118D02*
X66000Y46000D01*
X48888Y114688D02*
Y114705D01*
X51644Y121644D02*
X66000Y136000D01*
X48598Y114398D02*
X48888Y114688D01*
X48598Y105682D02*
Y114398D01*
X60882Y110882D02*
X66000Y116000D01*
X6000Y96000D02*
X11118Y101118D01*
X6000Y136000D02*
X6595D01*
X48900Y140900D02*
X56255D01*
D15*
X54400Y113400D02*
Y113506D01*
X66000Y125107D01*
X6000Y86000D02*
Y86194D01*
X17500Y97694D01*
Y97800D01*
X66000Y125107D02*
Y126000D01*
D16*
X6000Y56000D02*
D03*
Y66000D02*
D03*
Y76000D02*
D03*
Y86000D02*
D03*
Y96000D02*
D03*
Y106000D02*
D03*
Y116000D02*
D03*
Y186000D02*
D03*
Y176000D02*
D03*
Y166000D02*
D03*
Y156000D02*
D03*
Y146000D02*
D03*
Y136000D02*
D03*
Y126000D02*
D03*
Y46000D02*
D03*
Y36000D02*
D03*
Y26000D02*
D03*
Y16000D02*
D03*
Y6000D02*
D03*
X66000D02*
D03*
Y16000D02*
D03*
Y26000D02*
D03*
Y36000D02*
D03*
Y46000D02*
D03*
Y126000D02*
D03*
Y136000D02*
D03*
Y146000D02*
D03*
Y156000D02*
D03*
Y166000D02*
D03*
Y176000D02*
D03*
Y186000D02*
D03*
Y116000D02*
D03*
Y106000D02*
D03*
Y96000D02*
D03*
Y86000D02*
D03*
Y76000D02*
D03*
Y66000D02*
D03*
Y56000D02*
D03*
D17*
X6000Y196000D02*
D03*
X66000D02*
D03*
D18*
X36000Y190500D02*
D03*
X23800Y12000D02*
D03*
X36100D02*
D03*
X48400D02*
D03*
D19*
X58802Y4093D02*
D03*
X54204Y182521D02*
D03*
X17000Y183801D02*
D03*
X36500Y165745D02*
D03*
X34500Y137700D02*
D03*
X36000Y106218D02*
D03*
X56400Y46000D02*
D03*
X48400Y27830D02*
D03*
X36000Y89149D02*
D03*
D20*
X22900Y197076D02*
D03*
X52378Y198022D02*
D03*
X30900Y111500D02*
D03*
X54400Y113400D02*
D03*
X48598Y114694D02*
D03*
X51748Y97714D02*
D03*
Y103800D02*
D03*
X51710Y100700D02*
D03*
X51453Y91005D02*
D03*
X55723Y65100D02*
D03*
X17500Y91400D02*
D03*
X20712Y83132D02*
D03*
X17500Y97800D02*
D03*
X36000Y119602D02*
D03*
X19400Y110700D02*
D03*
X10200Y120300D02*
D03*
X17900Y107000D02*
D03*
X17100Y103900D02*
D03*
X48598Y105682D02*
D03*
X13149Y125549D02*
D03*
X25000Y169078D02*
D03*
X56255Y140900D02*
D03*
M02*
